<svg width="263" height="203" viewBox="0 0 263 203" fill="none" xmlns="http://www.w3.org/2000/svg">
<path d="M243.912 0.535997C248.52 0.535997 252.744 2.36 256.584 6.008C260.616 9.464 262.632 13.88 262.632 19.256C262.632 20.984 262.344 22.904 261.768 25.016L205.032 192.056C203.88 195.32 201.864 197.912 198.984 199.832C196.104 201.752 192.936 202.808 189.48 203C186.024 203 182.76 202.04 179.688 200.12C176.616 198.2 174.216 195.416 172.488 191.768L131.592 98.744L90.4083 191.768C88.6803 195.416 86.2803 198.2 83.2083 200.12C80.1363 202.04 76.8723 203 73.4163 203C69.9603 202.808 66.7923 201.752 63.9123 199.832C61.0323 197.912 59.0163 195.32 57.8643 192.056L1.12825 25.016C0.55225 22.904 0.26425 20.984 0.26425 19.256C0.26425 13.88 2.18425 9.464 6.02425 6.008C10.0563 2.36 14.4723 0.535997 19.2723 0.535997C23.1123 0.535997 26.5683 1.592 29.6403 3.70399C32.7123 5.62399 34.8243 8.31199 35.9763 11.768L78.8883 141.944L116.328 52.088C117.864 48.632 120.072 45.944 122.952 44.024C125.832 41.912 129.096 40.952 132.744 41.144C136.392 40.952 139.56 41.912 142.248 44.024C145.128 45.944 147.336 48.632 148.872 52.088L184.296 141.08L226.92 11.768C228.072 8.31199 230.184 5.62399 233.256 3.70399C236.52 1.592 240.072 0.535997 243.912 0.535997Z" fill="#3DA9FC"/>
</svg>
