<svg width="709" height="176" viewBox="0 0 709 176" fill="none" xmlns="http://www.w3.org/2000/svg">
<path d="M145.278 42.912C146.622 42.912 147.726 43.296 148.59 44.064C149.454 44.832 149.886 45.888 149.886 47.232L149.598 49.104L117.774 141.264C117.486 142.128 116.958 142.8 116.19 143.28C115.518 143.76 114.75 144 113.886 144C111.678 144 110.238 143.088 109.566 141.264L84.6536 79.776L59.7416 141.264C58.8776 143.088 57.4376 144 55.4216 144C54.5576 144 53.7416 143.76 52.9736 143.28C52.3016 142.8 51.8696 142.128 51.6776 141.264L19.8536 49.104C19.5656 48.528 19.4216 47.952 19.4216 47.376C19.4216 46.032 19.9016 44.976 20.8616 44.208C21.9176 43.344 23.0216 42.912 24.1736 42.912C25.1336 42.912 25.9976 43.152 26.7656 43.632C27.5336 44.112 28.0616 44.784 28.3496 45.648L56.5736 128.016L80.7656 67.68C81.6296 65.76 82.9736 64.848 84.7976 64.944C85.7576 64.848 86.5736 65.088 87.2456 65.664C88.0136 66.144 88.5896 66.816 88.9736 67.68L113.022 128.016L140.958 45.648C141.726 43.824 143.166 42.912 145.278 42.912ZM225.654 102.96C225.654 104.112 225.222 105.12 224.358 105.984C223.494 106.752 222.486 107.136 221.334 107.136H166.902C166.902 112.896 168.054 118.08 170.358 122.688C172.758 127.2 176.118 130.8 180.438 133.488C184.854 136.08 190.038 137.376 195.99 137.376C200.598 137.376 204.726 136.416 208.374 134.496C212.022 132.576 214.95 130.128 217.158 127.152C218.214 126.288 219.222 125.856 220.182 125.856C221.142 125.856 222.006 126.24 222.774 127.008C223.542 127.776 223.926 128.64 223.926 129.6C223.926 130.656 223.446 131.664 222.486 132.624C219.414 136.368 215.526 139.44 210.822 141.84C206.214 144.24 201.318 145.44 196.134 145.44C188.742 145.44 182.214 143.856 176.55 140.688C170.886 137.52 166.47 133.104 163.302 127.44C160.134 121.68 158.55 115.056 158.55 107.568C158.55 99.696 160.086 92.832 163.158 86.976C166.326 81.024 170.502 76.512 175.686 73.44C180.87 70.272 186.39 68.688 192.246 68.688C198.006 68.688 203.382 70.032 208.374 72.72C213.462 75.408 217.59 79.344 220.758 84.528C223.926 89.712 225.558 95.856 225.654 102.96ZM192.246 77.04C186.678 77.04 181.494 78.96 176.694 82.8C171.99 86.64 168.966 92.16 167.622 99.36H216.726V98.208C216.246 93.888 214.806 90.144 212.406 86.976C210.006 83.712 206.982 81.264 203.334 79.632C199.782 77.904 196.086 77.04 192.246 77.04ZM278.454 68.688C284.79 68.688 290.55 70.32 295.734 73.584C300.918 76.848 304.95 81.408 307.83 87.264C310.806 93.024 312.294 99.552 312.294 106.848C312.294 114.048 310.806 120.624 307.83 126.576C304.95 132.432 300.918 137.04 295.734 140.4C290.646 143.76 284.934 145.44 278.598 145.44C273.126 145.44 268.038 144.096 263.334 141.408C258.726 138.624 254.982 134.976 252.102 130.464V139.968C252.102 141.216 251.67 142.272 250.806 143.136C250.038 144 249.03 144.432 247.782 144.432C246.534 144.432 245.478 144 244.614 143.136C243.846 142.272 243.462 141.216 243.462 139.968V41.904C243.462 40.656 243.846 39.648 244.614 38.88C245.478 38.016 246.534 37.584 247.782 37.584C249.03 37.584 250.038 38.016 250.806 38.88C251.67 39.648 252.102 40.656 252.102 41.904V84.384C254.694 79.68 258.342 75.888 263.046 73.008C267.75 70.128 272.886 68.688 278.454 68.688ZM277.734 137.376C282.726 137.376 287.19 136.032 291.126 133.344C295.158 130.656 298.278 127.008 300.486 122.4C302.79 117.696 303.942 112.512 303.942 106.848C303.942 101.088 302.79 95.952 300.486 91.44C298.278 86.832 295.158 83.232 291.126 80.64C287.19 78.048 282.726 76.752 277.734 76.752C272.646 76.752 268.086 78.048 264.054 80.64C260.022 83.136 256.902 86.688 254.694 91.296C252.486 95.904 251.382 101.088 251.382 106.848C251.382 112.608 252.486 117.84 254.694 122.544C256.998 127.152 260.118 130.8 264.054 133.488C268.086 136.08 272.646 137.376 277.734 137.376ZM398.055 107.136C398.055 114.336 396.471 120.864 393.303 126.72C390.135 132.576 385.767 137.184 380.199 140.544C374.631 143.808 368.439 145.44 361.623 145.44C354.807 145.44 348.615 143.808 343.047 140.544C337.479 137.184 333.111 132.576 329.943 126.72C326.775 120.864 325.191 114.336 325.191 107.136C325.191 99.936 326.775 93.408 329.943 87.552C333.111 81.696 337.479 77.088 343.047 73.728C348.615 70.368 354.807 68.688 361.623 68.688C368.439 68.688 374.631 70.368 380.199 73.728C385.767 77.088 390.135 81.696 393.303 87.552C396.471 93.408 398.055 99.936 398.055 107.136ZM389.415 107.136C389.415 101.376 388.215 96.192 385.815 91.584C383.415 86.976 380.055 83.376 375.735 80.784C371.511 78.096 366.807 76.752 361.623 76.752C356.439 76.752 351.735 78.096 347.511 80.784C343.287 83.376 339.927 86.976 337.431 91.584C335.031 96.192 333.831 101.376 333.831 107.136C333.831 112.8 335.031 117.936 337.431 122.544C339.927 127.152 343.287 130.8 347.511 133.488C351.735 136.08 356.439 137.376 361.623 137.376C366.807 137.376 371.511 136.08 375.735 133.488C380.055 130.896 383.415 127.296 385.815 122.688C388.215 118.08 389.415 112.896 389.415 107.136ZM450.72 69.84C457.056 69.84 462.816 71.472 468 74.736C473.184 77.904 477.216 82.368 480.096 88.128C483.072 93.792 484.56 100.176 484.56 107.28C484.56 114.48 483.072 120.96 480.096 126.72C477.216 132.384 473.184 136.848 468 140.112C462.912 143.376 457.2 145.008 450.864 145.008C445.296 145.008 440.16 143.712 435.456 141.12C430.848 138.432 427.152 134.88 424.368 130.464V168.48C424.368 169.728 423.936 170.736 423.072 171.504C422.304 172.368 421.296 172.8 420.048 172.8C418.8 172.8 417.744 172.368 416.88 171.504C416.112 170.736 415.728 169.728 415.728 168.48V74.592C415.728 73.344 416.112 72.288 416.88 71.424C417.744 70.56 418.8 70.128 420.048 70.128C421.296 70.128 422.304 70.56 423.072 71.424C423.936 72.288 424.368 73.344 424.368 74.592V84.384C426.864 79.872 430.464 76.32 435.168 73.728C439.872 71.136 445.056 69.84 450.72 69.84ZM450 136.944C454.992 136.944 459.456 135.696 463.392 133.2C467.424 130.608 470.544 127.056 472.752 122.544C475.056 118.032 476.208 112.944 476.208 107.28C476.208 101.712 475.056 96.72 472.752 92.304C470.544 87.792 467.424 84.288 463.392 81.792C459.456 79.2 454.992 77.904 450 77.904C444.912 77.904 440.352 79.152 436.32 81.648C432.288 84.144 429.168 87.648 426.96 92.16C424.752 96.576 423.648 101.616 423.648 107.28C423.648 112.944 424.752 118.032 426.96 122.544C429.168 127.056 432.288 130.608 436.32 133.2C440.352 135.696 444.912 136.944 450 136.944ZM564.561 102.96C564.561 104.112 564.129 105.12 563.265 105.984C562.401 106.752 561.393 107.136 560.241 107.136H505.809C505.809 112.896 506.961 118.08 509.265 122.688C511.665 127.2 515.025 130.8 519.345 133.488C523.761 136.08 528.945 137.376 534.897 137.376C539.505 137.376 543.633 136.416 547.281 134.496C550.929 132.576 553.857 130.128 556.065 127.152C557.121 126.288 558.129 125.856 559.089 125.856C560.049 125.856 560.913 126.24 561.681 127.008C562.449 127.776 562.833 128.64 562.833 129.6C562.833 130.656 562.353 131.664 561.393 132.624C558.321 136.368 554.433 139.44 549.729 141.84C545.121 144.24 540.225 145.44 535.041 145.44C527.649 145.44 521.121 143.856 515.457 140.688C509.793 137.52 505.377 133.104 502.209 127.44C499.041 121.68 497.457 115.056 497.457 107.568C497.457 99.696 498.993 92.832 502.065 86.976C505.233 81.024 509.409 76.512 514.593 73.44C519.777 70.272 525.297 68.688 531.153 68.688C536.913 68.688 542.289 70.032 547.281 72.72C552.369 75.408 556.497 79.344 559.665 84.528C562.833 89.712 564.465 95.856 564.561 102.96ZM531.153 77.04C525.585 77.04 520.401 78.96 515.601 82.8C510.897 86.64 507.873 92.16 506.529 99.36H555.633V98.208C555.153 93.888 553.713 90.144 551.313 86.976C548.913 83.712 545.889 81.264 542.241 79.632C538.689 77.904 534.993 77.04 531.153 77.04ZM616.784 68.688C618.704 68.688 620.432 69.072 621.968 69.84C623.504 70.608 624.272 71.76 624.272 73.296C624.272 74.64 623.888 75.744 623.12 76.608C622.352 77.376 621.44 77.76 620.384 77.76C619.904 77.76 618.944 77.52 617.504 77.04C616.16 76.56 614.864 76.32 613.616 76.32C610.064 76.32 606.512 77.712 602.96 80.496C599.504 83.184 596.624 86.688 594.32 91.008C592.112 95.328 591.008 99.696 591.008 104.112V139.68C591.008 140.928 590.576 141.984 589.712 142.848C588.944 143.616 587.936 144 586.688 144C585.44 144 584.384 143.616 583.52 142.848C582.752 141.984 582.368 140.928 582.368 139.68V75.168C582.368 73.92 582.752 72.912 583.52 72.144C584.384 71.28 585.44 70.848 586.688 70.848C587.936 70.848 588.944 71.28 589.712 72.144C590.576 72.912 591.008 73.92 591.008 75.168V87.84C593.216 82.368 596.528 77.856 600.944 74.304C605.456 70.656 610.736 68.784 616.784 68.688ZM633.598 132.336C632.83 131.088 632.446 130.032 632.446 129.168C632.446 127.92 633.07 126.96 634.318 126.288C634.894 125.712 635.662 125.424 636.622 125.424C637.774 125.424 638.83 125.904 639.79 126.864C645.454 134.352 652.99 138.096 662.398 138.096C667.006 138.096 670.99 137.04 674.35 134.928C677.806 132.72 679.534 129.552 679.534 125.424C679.534 121.392 677.95 118.368 674.782 116.352C671.614 114.336 667.198 112.608 661.534 111.168C653.566 109.152 647.326 106.56 642.814 103.392C638.302 100.128 636.046 95.376 636.046 89.136C636.046 85.2 637.15 81.696 639.358 78.624C641.566 75.456 644.542 73.008 648.286 71.28C652.126 69.552 656.446 68.688 661.246 68.688C665.374 68.688 669.502 69.504 673.63 71.136C677.854 72.672 681.454 75.168 684.43 78.624C685.294 79.296 685.726 80.256 685.726 81.504C685.726 82.656 685.246 83.664 684.286 84.528C683.614 85.104 682.75 85.392 681.694 85.392C680.734 85.392 679.87 85.008 679.102 84.24C676.798 81.648 674.062 79.68 670.894 78.336C667.726 76.992 664.318 76.32 660.67 76.32C656.158 76.32 652.27 77.376 649.006 79.488C645.838 81.6 644.254 84.768 644.254 88.992C644.446 92.832 646.174 95.76 649.438 97.776C652.798 99.792 657.694 101.616 664.126 103.248C669.118 104.496 673.246 105.888 676.51 107.424C679.774 108.96 682.414 111.12 684.43 113.904C686.542 116.688 687.598 120.384 687.598 124.992C687.598 131.232 685.102 136.224 680.11 139.968C675.118 143.616 668.926 145.44 661.534 145.44C649.822 145.44 640.51 141.072 633.598 132.336Z" fill="#3DA9FC"/>
<path d="M148.59 44.064L146.596 46.3062V46.3062L148.59 44.064ZM149.886 47.232L152.851 47.6882L152.886 47.4614V47.232H149.886ZM149.598 49.104L152.433 50.0832L152.522 49.8275L152.563 49.5602L149.598 49.104ZM117.774 141.264L114.938 140.285L114.933 140.3L114.928 140.315L117.774 141.264ZM116.19 143.28L114.6 140.736L114.521 140.785L114.446 140.839L116.19 143.28ZM109.566 141.264L112.381 140.227L112.364 140.182L112.346 140.137L109.566 141.264ZM84.6536 79.776L87.434 78.6495L84.6536 71.7867L81.8731 78.6495L84.6536 79.776ZM59.7416 141.264L62.4528 142.548L62.4897 142.47L62.522 142.391L59.7416 141.264ZM52.9736 143.28L51.2299 145.721L51.3051 145.775L51.3836 145.824L52.9736 143.28ZM51.6776 141.264L54.6061 140.613L54.569 140.446L54.5133 140.285L51.6776 141.264ZM19.8536 49.104L22.6893 48.1248L22.625 47.9386L22.5368 47.7624L19.8536 49.104ZM20.8616 44.208L22.7356 46.5506L22.7485 46.5403L22.7613 46.5299L20.8616 44.208ZM26.7656 43.632L25.1756 46.176H25.1756L26.7656 43.632ZM28.3496 45.648L25.5035 46.5967L25.5075 46.6086L25.5116 46.6205L28.3496 45.648ZM56.5736 128.016L53.7356 128.988L56.353 136.627L59.3581 129.132L56.5736 128.016ZM80.7656 67.68L78.0298 66.4489L78.0042 66.5057L77.9811 66.5635L80.7656 67.68ZM84.7976 64.944L84.6399 67.9398L84.8684 67.9519L85.0961 67.9291L84.7976 64.944ZM87.2456 65.664L85.2932 67.9418L85.4644 68.0885L85.6556 68.208L87.2456 65.664ZM88.9736 67.68L91.7604 66.5693L91.7387 66.515L91.715 66.4616L88.9736 67.68ZM113.022 128.016L110.235 129.127L113.248 136.688L115.863 128.98L113.022 128.016ZM140.958 45.648L138.193 44.4838L138.151 44.5828L138.117 44.6844L140.958 45.648ZM145.278 45.912C146.014 45.912 146.37 46.1046 146.596 46.3062L150.583 41.8218C149.082 40.4874 147.229 39.912 145.278 39.912V45.912ZM146.596 46.3062C146.714 46.4103 146.886 46.5913 146.886 47.232H152.886C152.886 45.1846 152.194 43.2537 150.583 41.8218L146.596 46.3062ZM146.92 46.7758L146.632 48.6478L152.563 49.5602L152.851 47.6882L146.92 46.7758ZM146.762 48.1248L114.938 140.285L120.609 142.243L152.433 50.0832L146.762 48.1248ZM114.928 140.315C114.859 140.522 114.773 140.628 114.6 140.736L117.78 145.824C119.143 144.972 120.112 143.734 120.62 142.213L114.928 140.315ZM114.446 140.839C114.307 140.938 114.155 141 113.886 141V147C115.344 147 116.728 146.582 117.933 145.721L114.446 140.839ZM113.886 141C113.185 141 112.872 140.856 112.755 140.782C112.668 140.727 112.522 140.611 112.381 140.227L106.751 142.301C107.281 143.741 108.191 144.993 109.544 145.85C110.867 146.688 112.379 147 113.886 147V141ZM112.346 140.137L87.434 78.6495L81.8731 80.9025L106.785 142.391L112.346 140.137ZM81.8731 78.6495L56.9611 140.137L62.522 142.391L87.434 80.9025L81.8731 78.6495ZM57.0303 139.98C56.796 140.474 56.5666 140.681 56.4084 140.782C56.2504 140.882 55.9665 141 55.4216 141V147C56.8926 147 58.3367 146.662 59.6187 145.85C60.9005 145.039 61.8231 143.878 62.4528 142.548L57.0303 139.98ZM55.4216 141C55.1476 141 54.8789 140.933 54.5636 140.736L51.3836 145.824C52.6043 146.587 53.9675 147 55.4216 147V141ZM54.7173 140.839C54.6958 140.823 54.685 140.813 54.6805 140.808C54.6762 140.804 54.6729 140.8 54.6691 140.794C54.6638 140.786 54.6337 140.737 54.6061 140.613L48.749 141.915C49.089 143.445 49.9101 144.779 51.2299 145.721L54.7173 140.839ZM54.5133 140.285L22.6893 48.1248L17.0179 50.0832L48.8419 142.243L54.5133 140.285ZM22.5368 47.7624C22.4323 47.5532 22.4216 47.4337 22.4216 47.376H16.4216C16.4216 48.4703 16.6989 49.5028 17.1703 50.4456L22.5368 47.7624ZM22.4216 47.376C22.4216 46.8463 22.5598 46.6913 22.7356 46.5506L18.9875 41.8654C17.2433 43.2607 16.4216 45.2177 16.4216 47.376H22.4216ZM22.7613 46.5299C23.3845 46.02 23.8366 45.912 24.1736 45.912V39.912C22.2065 39.912 20.4507 40.668 18.9618 41.8861L22.7613 46.5299ZM24.1736 45.912C24.6066 45.912 24.9134 46.0121 25.1756 46.176L28.3556 41.088C27.0817 40.2919 25.6606 39.912 24.1736 39.912V45.912ZM25.1756 46.176C25.3486 46.2841 25.4347 46.3902 25.5035 46.5967L31.1956 44.6993C30.6884 43.1778 29.7186 41.9399 28.3556 41.088L25.1756 46.176ZM25.5116 46.6205L53.7356 128.988L59.4116 127.044L31.1876 44.6755L25.5116 46.6205ZM59.3581 129.132L83.5501 68.7965L77.9811 66.5635L53.7891 126.9L59.3581 129.132ZM83.5013 68.9111C83.7718 68.3102 84.011 68.1029 84.1061 68.0384C84.1696 67.9953 84.296 67.9218 84.6399 67.9398L84.9552 61.9481C83.4751 61.8702 82.0175 62.2047 80.7371 63.0736C79.4881 63.9211 78.6234 65.1298 78.0298 66.4489L83.5013 68.9111ZM85.0961 67.9291C85.2425 67.9145 85.2928 67.933 85.2831 67.9301C85.2806 67.9294 85.2757 67.9274 85.2721 67.9254C85.2688 67.9236 85.2758 67.9268 85.2932 67.9418L89.1979 63.3862C87.8442 62.2259 86.193 61.7895 84.4991 61.9589L85.0961 67.9291ZM85.6556 68.208C85.893 68.3564 86.0798 68.5558 86.2321 68.8984L91.715 66.4616C91.0993 65.0762 90.1341 63.9316 88.8356 63.12L85.6556 68.208ZM86.1868 68.7907L110.235 129.127L115.808 126.905L91.7604 66.5693L86.1868 68.7907ZM115.863 128.98L143.799 46.6116L138.117 44.6844L110.181 127.052L115.863 128.98ZM143.722 46.8122C143.908 46.371 144.096 46.2083 144.219 46.1305C144.355 46.0438 144.654 45.912 145.278 45.912V39.912C143.789 39.912 142.312 40.2362 141.008 41.0615C139.691 41.8957 138.775 43.101 138.193 44.4838L143.722 46.8122ZM225.654 102.96H228.654V102.94L228.654 102.919L225.654 102.96ZM224.358 105.984L226.351 108.226L226.417 108.168L226.48 108.105L224.358 105.984ZM166.902 107.136V104.136H163.902V107.136H166.902ZM170.358 122.688L167.675 124.03L167.692 124.063L167.71 124.097L170.358 122.688ZM180.438 133.488L178.853 136.035L178.886 136.056L178.92 136.075L180.438 133.488ZM208.374 134.496L209.772 137.151L208.374 134.496ZM217.158 127.152L215.259 124.83L214.971 125.066L214.749 125.364L217.158 127.152ZM222.774 127.008L224.896 124.887L224.896 124.887L222.774 127.008ZM222.486 132.624L220.365 130.503L220.261 130.607L220.167 130.721L222.486 132.624ZM210.822 141.84L209.459 139.168L209.448 139.173L209.437 139.179L210.822 141.84ZM176.55 140.688L175.086 143.306L176.55 140.688ZM163.302 127.44L160.674 128.886L160.679 128.895L160.684 128.904L163.302 127.44ZM163.158 86.976L160.51 85.5665L160.506 85.5744L160.502 85.5824L163.158 86.976ZM175.686 73.44L177.216 76.0209L177.233 76.0105L177.251 75.9998L175.686 73.44ZM208.374 72.72L206.952 75.3614L206.962 75.367L206.973 75.3726L208.374 72.72ZM220.758 84.528L218.198 86.0923L220.758 84.528ZM176.694 82.8L174.82 80.4574L174.809 80.4666L174.797 80.476L176.694 82.8ZM167.622 99.36L164.673 98.8095L164.01 102.36H167.622V99.36ZM216.726 99.36V102.36H219.726V99.36H216.726ZM216.726 98.208H219.726V98.0418L219.708 97.8767L216.726 98.208ZM212.406 86.976L209.989 88.7532L210.002 88.7705L210.015 88.7876L212.406 86.976ZM203.334 79.632L202.022 82.3297L202.065 82.3508L202.109 82.3705L203.334 79.632ZM222.654 102.96C222.654 103.264 222.576 103.523 222.237 103.863L226.48 108.105C227.868 106.717 228.654 104.96 228.654 102.96H222.654ZM222.365 103.742C222.048 104.024 221.749 104.136 221.334 104.136V110.136C223.224 110.136 224.94 109.48 226.351 108.226L222.365 103.742ZM221.334 104.136H166.902V110.136H221.334V104.136ZM163.902 107.136C163.902 113.306 165.139 118.958 167.675 124.03L173.042 121.346C170.969 117.202 169.902 112.486 169.902 107.136H163.902ZM167.71 124.097C170.357 129.073 174.083 133.067 178.853 136.035L182.023 130.941C178.154 128.533 175.16 125.327 173.007 121.279L167.71 124.097ZM178.92 136.075C183.866 138.979 189.592 140.376 195.99 140.376V134.376C190.484 134.376 185.842 133.181 181.957 130.901L178.92 136.075ZM195.99 140.376C201.027 140.376 205.644 139.323 209.772 137.151L206.977 131.841C203.809 133.509 200.17 134.376 195.99 134.376V140.376ZM209.772 137.151C213.772 135.045 217.063 132.316 219.568 128.94L214.749 125.364C212.838 127.94 210.272 130.107 206.977 131.841L209.772 137.151ZM219.058 129.474C219.8 128.867 220.155 128.856 220.182 128.856V122.856C218.289 122.856 216.629 123.709 215.259 124.83L219.058 129.474ZM220.182 128.856C220.24 128.856 220.367 128.843 220.653 129.129L224.896 124.887C223.646 123.637 222.045 122.856 220.182 122.856V128.856ZM220.653 129.129C220.939 129.415 220.926 129.543 220.926 129.6H226.926C226.926 127.737 226.146 126.137 224.896 124.887L220.653 129.129ZM220.926 129.6C220.926 129.65 220.931 129.937 220.365 130.503L224.608 134.745C225.962 133.391 226.926 131.661 226.926 129.6H220.926ZM220.167 130.721C217.38 134.118 213.828 136.938 209.459 139.168L212.186 144.512C217.224 141.942 221.448 138.618 224.806 134.527L220.167 130.721ZM209.437 139.179C205.255 141.357 200.835 142.44 196.134 142.44V148.44C201.802 148.44 207.173 147.123 212.208 144.501L209.437 139.179ZM196.134 142.44C189.183 142.44 183.172 140.954 178.015 138.07L175.086 143.306C181.256 146.758 188.302 148.44 196.134 148.44V142.44ZM178.015 138.07C172.835 135.172 168.818 131.156 165.921 125.976L160.684 128.904C164.123 135.052 168.938 139.868 175.086 143.306L178.015 138.07ZM165.931 125.994C163.039 120.736 161.55 114.622 161.55 107.568H155.55C155.55 115.49 157.23 122.624 160.674 128.886L165.931 125.994ZM161.55 107.568C161.55 100.089 163.008 93.721 165.815 88.3696L160.502 85.5824C157.165 91.943 155.55 99.3026 155.55 107.568H161.55ZM165.807 88.3855C168.748 82.8599 172.56 78.78 177.216 76.0209L174.157 70.8591C168.445 74.244 163.905 79.1881 160.51 85.5665L165.807 88.3855ZM177.251 75.9998C181.982 73.1084 186.964 71.688 192.246 71.688V65.688C185.817 65.688 179.758 67.4356 174.122 70.8801L177.251 75.9998ZM192.246 71.688C197.518 71.688 202.404 72.9127 206.952 75.3614L209.797 70.0786C204.36 67.1513 198.495 65.688 192.246 65.688V71.688ZM206.973 75.3726C211.557 77.7943 215.295 81.3419 218.198 86.0923L223.318 82.9636C219.885 77.3461 215.368 73.0217 209.776 70.0674L206.973 75.3726ZM218.198 86.0923C221.041 90.7443 222.565 96.3425 222.655 103.001L228.654 102.919C228.552 95.3695 226.811 88.6797 223.318 82.9636L218.198 86.0923ZM192.246 74.04C185.925 74.04 180.093 76.2389 174.82 80.4574L178.568 85.1426C182.895 81.6811 187.431 80.04 192.246 80.04V74.04ZM174.797 80.476C169.436 84.8521 166.119 91.0624 164.673 98.8095L170.571 99.9105C171.813 93.2576 174.544 88.4279 178.591 85.124L174.797 80.476ZM167.622 102.36H216.726V96.36H167.622V102.36ZM219.726 99.36V98.208H213.726V99.36H219.726ZM219.708 97.8767C219.174 93.071 217.554 88.8034 214.798 85.1644L210.015 88.7876C212.058 91.4846 213.319 94.705 213.745 98.5393L219.708 97.8767ZM214.823 85.1988C212.12 81.5227 208.688 78.7405 204.559 76.8935L202.109 82.3705C205.277 83.7875 207.892 85.9013 209.989 88.7532L214.823 85.1988ZM204.647 76.9343C200.698 75.0132 196.554 74.04 192.246 74.04V80.04C195.618 80.04 198.867 80.7947 202.022 82.3297L204.647 76.9343ZM295.734 73.584L297.332 71.0453H297.332L295.734 73.584ZM307.83 87.264L305.138 88.588L305.151 88.6146L305.165 88.6411L307.83 87.264ZM307.83 126.576L305.147 125.234L305.142 125.243L305.138 125.252L307.83 126.576ZM295.734 140.4L294.102 137.883L294.091 137.89L294.081 137.897L295.734 140.4ZM263.334 141.408L261.783 143.976L261.814 143.995L261.846 144.013L263.334 141.408ZM252.102 130.464L254.631 128.85L249.102 120.188V130.464H252.102ZM250.806 143.136L248.685 141.015L248.622 141.077L248.564 141.143L250.806 143.136ZM244.614 143.136L242.372 145.129L242.43 145.195L242.493 145.257L244.614 143.136ZM244.614 38.88L246.735 41.0013V41.0013L244.614 38.88ZM250.806 38.88L248.564 40.8731L248.681 41.005L248.813 41.1222L250.806 38.88ZM252.102 84.384H249.102L254.729 85.8318L252.102 84.384ZM263.046 73.008L261.479 70.4494H261.479L263.046 73.008ZM291.126 133.344L289.462 130.848L289.448 130.857L289.434 130.867L291.126 133.344ZM300.486 122.4L297.792 121.08L297.786 121.092L297.78 121.104L300.486 122.4ZM300.486 91.44L297.78 92.7364L297.797 92.7706L297.814 92.8043L300.486 91.44ZM291.126 80.64L289.476 83.1455L289.49 83.1546L289.504 83.1635L291.126 80.64ZM264.054 80.64L265.633 83.1908L265.655 83.1773L265.676 83.1635L264.054 80.64ZM254.694 122.544L251.978 123.819L251.994 123.852L252.011 123.886L254.694 122.544ZM264.054 133.488L262.362 135.965L262.397 135.989L262.432 136.012L264.054 133.488ZM278.454 71.688C284.245 71.688 289.447 73.1708 294.135 76.1227L297.332 71.0453C291.653 67.4692 285.335 65.688 278.454 65.688V71.688ZM294.135 76.1227C298.819 79.0713 302.486 83.1964 305.138 88.588L310.522 85.94C307.414 79.6196 303.017 74.6247 297.332 71.0453L294.135 76.1227ZM305.165 88.6411C307.894 93.9245 309.294 99.9704 309.294 106.848H315.294C315.294 99.1336 313.717 92.1235 310.495 85.8869L305.165 88.6411ZM309.294 106.848C309.294 113.621 307.898 119.732 305.147 125.234L310.513 127.918C313.714 121.516 315.294 114.475 315.294 106.848H309.294ZM305.138 125.252C302.483 130.65 298.806 134.834 294.102 137.883L297.366 142.917C303.03 139.246 307.417 134.214 310.522 127.9L305.138 125.252ZM294.081 137.897C289.503 140.92 284.37 142.44 278.598 142.44V148.44C285.497 148.44 291.789 146.6 297.387 142.903L294.081 137.897ZM278.598 142.44C273.643 142.44 269.068 141.23 264.822 138.803L261.846 144.013C267.008 146.962 272.609 148.44 278.598 148.44V142.44ZM264.885 138.84C260.67 136.293 257.261 132.971 254.631 128.85L249.573 132.078C252.703 136.981 256.782 140.955 261.783 143.976L264.885 138.84ZM249.102 130.464V139.968H255.102V130.464H249.102ZM249.102 139.968C249.102 140.439 248.973 140.727 248.685 141.015L252.927 145.257C254.367 143.817 255.102 141.993 255.102 139.968H249.102ZM248.564 141.143C248.414 141.311 248.25 141.432 247.782 141.432V147.432C249.81 147.432 251.662 146.689 253.048 145.129L248.564 141.143ZM247.782 141.432C247.311 141.432 247.023 141.303 246.735 141.015L242.493 145.257C243.933 146.697 245.757 147.432 247.782 147.432V141.432ZM246.856 141.143C246.617 140.874 246.462 140.545 246.462 139.968H240.462C240.462 141.887 241.075 143.67 242.372 145.129L246.856 141.143ZM246.462 139.968V41.904H240.462V139.968H246.462ZM246.462 41.904C246.462 41.323 246.615 41.1218 246.735 41.0013L242.493 36.7587C241.077 38.1741 240.462 39.989 240.462 41.904H246.462ZM246.735 41.0013C247.023 40.7133 247.311 40.584 247.782 40.584V34.584C245.757 34.584 243.933 35.3187 242.493 36.7587L246.735 41.0013ZM247.782 40.584C248.25 40.584 248.414 40.7048 248.564 40.8731L253.048 36.8869C251.662 35.3272 249.81 34.584 247.782 34.584V40.584ZM248.813 41.1222C248.981 41.2718 249.102 41.4361 249.102 41.904H255.102C255.102 39.8759 254.359 38.0242 252.799 36.6378L248.813 41.1222ZM249.102 41.904V84.384H255.102V41.904H249.102ZM254.729 85.8318C257.063 81.5965 260.34 78.1823 264.612 75.5666L261.479 70.4494C256.344 73.5937 252.325 77.7635 249.474 82.9362L254.729 85.8318ZM264.612 75.5666C268.84 72.9781 273.433 71.688 278.454 71.688V65.688C272.339 65.688 266.66 67.2779 261.479 70.4494L264.612 75.5666ZM277.734 140.376C283.299 140.376 288.359 138.867 292.818 135.821L289.434 130.867C286.021 133.197 282.152 134.376 277.734 134.376V140.376ZM292.79 135.84C297.295 132.837 300.764 128.763 303.191 123.696L297.78 121.104C295.792 125.253 293.02 128.475 289.462 130.848L292.79 135.84ZM303.18 123.72C305.701 118.572 306.942 112.932 306.942 106.848H300.942C300.942 112.092 299.879 116.82 297.792 121.08L303.18 123.72ZM306.942 106.848C306.942 100.679 305.705 95.0648 303.158 90.0757L297.814 92.8043C299.875 96.8392 300.942 101.497 300.942 106.848H306.942ZM303.191 90.1436C300.76 85.0686 297.279 81.0293 292.748 78.1165L289.504 83.1635C293.037 85.4347 295.796 88.5954 297.78 92.7364L303.191 90.1436ZM292.776 78.1345C288.32 75.2004 283.276 73.752 277.734 73.752V79.752C282.176 79.752 286.059 80.8956 289.476 83.1455L292.776 78.1345ZM277.734 73.752C272.108 73.752 266.978 75.1939 262.432 78.1165L265.676 83.1635C269.194 80.9021 273.184 79.752 277.734 79.752V73.752ZM262.475 78.0892C257.917 80.9106 254.424 84.9162 251.988 89.9996L257.399 92.5924C259.38 88.4597 262.127 85.3614 265.633 83.1908L262.475 78.0892ZM251.988 89.9996C249.563 95.0611 248.382 100.697 248.382 106.848H254.382C254.382 101.479 255.409 96.7469 257.399 92.5924L251.988 89.9996ZM248.382 106.848C248.382 113 249.564 118.674 251.978 123.819L257.41 121.269C255.408 117.006 254.382 112.216 254.382 106.848H248.382ZM252.011 123.886C254.524 128.912 257.971 132.966 262.362 135.965L265.746 131.011C262.265 128.634 259.472 125.392 257.377 121.202L252.011 123.886ZM262.432 136.012C266.978 138.934 272.108 140.376 277.734 140.376V134.376C273.184 134.376 269.194 133.226 265.676 130.964L262.432 136.012ZM393.303 126.72L395.942 128.147L393.303 126.72ZM380.199 140.544L381.716 143.132L381.733 143.122L381.749 143.113L380.199 140.544ZM343.047 140.544L341.497 143.113L341.513 143.122L341.53 143.132L343.047 140.544ZM329.943 126.72L327.304 128.147L329.943 126.72ZM329.943 87.552L327.304 86.1245L329.943 87.552ZM343.047 73.728L341.497 71.1594L343.047 73.728ZM380.199 73.728L381.749 71.1594L380.199 73.728ZM375.735 80.784L374.124 83.315L374.158 83.3362L374.191 83.3565L375.735 80.784ZM347.511 80.784L349.08 83.341L349.101 83.3281L349.122 83.315L347.511 80.784ZM337.431 91.584L334.793 90.1552L334.781 90.1766L334.77 90.1982L337.431 91.584ZM337.431 122.544L334.77 123.93L334.781 123.951L334.793 123.973L337.431 122.544ZM347.511 133.488L345.9 136.019L345.921 136.032L345.942 136.045L347.511 133.488ZM375.735 133.488L374.191 130.916L374.179 130.923L374.166 130.931L375.735 133.488ZM385.815 122.688L388.476 124.074L385.815 122.688ZM395.055 107.136C395.055 113.879 393.576 119.91 390.664 125.293L395.942 128.147C399.366 121.818 401.055 114.793 401.055 107.136H395.055ZM390.664 125.293C387.745 130.69 383.747 134.899 378.649 137.975L381.749 143.113C387.786 139.469 392.525 134.462 395.942 128.147L390.664 125.293ZM378.682 137.956C373.6 140.935 367.937 142.44 361.623 142.44V148.44C368.941 148.44 375.662 146.681 381.716 143.132L378.682 137.956ZM361.623 142.44C355.309 142.44 349.646 140.935 344.564 137.956L341.53 143.132C347.584 146.681 354.305 148.44 361.623 148.44V142.44ZM344.597 137.975C339.498 134.899 335.501 130.69 332.582 125.293L327.304 128.147C330.721 134.462 335.459 139.469 341.497 143.113L344.597 137.975ZM332.582 125.293C329.67 119.91 328.191 113.879 328.191 107.136H322.191C322.191 114.793 323.88 121.818 327.304 128.147L332.582 125.293ZM328.191 107.136C328.191 100.393 329.67 94.3618 332.582 88.9795L327.304 86.1245C323.88 92.4542 322.191 99.4792 322.191 107.136H328.191ZM332.582 88.9795C335.501 83.5824 339.498 79.3733 344.597 76.2966L341.497 71.1594C335.459 74.8027 330.721 79.8096 327.304 86.1245L332.582 88.9795ZM344.597 76.2966C349.674 73.2327 355.326 71.688 361.623 71.688V65.688C354.288 65.688 347.556 67.5033 341.497 71.1594L344.597 76.2966ZM361.623 71.688C367.92 71.688 373.572 73.2327 378.649 76.2966L381.749 71.1594C375.69 67.5033 368.958 65.688 361.623 65.688V71.688ZM378.649 76.2966C383.747 79.3733 387.745 83.5824 390.664 88.9795L395.942 86.1245C392.525 79.8096 387.786 74.8027 381.749 71.1594L378.649 76.2966ZM390.664 88.9795C393.576 94.3618 395.055 100.393 395.055 107.136H401.055C401.055 99.4792 399.366 92.4542 395.942 86.1245L390.664 88.9795ZM392.415 107.136C392.415 100.947 391.122 95.279 388.476 90.1982L383.154 92.9698C385.308 97.105 386.415 101.805 386.415 107.136H392.415ZM388.476 90.1982C385.828 85.1153 382.089 81.0976 377.278 78.2115L374.191 83.3565C378.021 85.6544 381.002 88.8367 383.154 92.9698L388.476 90.1982ZM377.346 78.253C372.623 75.2475 367.356 73.752 361.623 73.752V79.752C366.258 79.752 370.399 80.9445 374.124 83.315L377.346 78.253ZM361.623 73.752C355.89 73.752 350.623 75.2475 345.9 78.253L349.122 83.315C352.847 80.9445 356.988 79.752 361.623 79.752V73.752ZM345.942 78.227C341.243 81.1106 337.525 85.1114 334.793 90.1552L340.069 93.0128C342.329 88.8406 345.331 85.6413 349.08 83.341L345.942 78.227ZM334.77 90.1982C332.124 95.279 330.831 100.947 330.831 107.136H336.831C336.831 101.805 337.938 97.105 340.092 92.9698L334.77 90.1982ZM330.831 107.136C330.831 113.238 332.128 118.856 334.77 123.93L340.092 121.158C337.934 117.016 336.831 112.362 336.831 107.136H330.831ZM334.793 123.973C337.52 129.008 341.225 133.044 345.9 136.019L349.122 130.957C345.349 128.556 342.333 125.296 340.069 121.115L334.793 123.973ZM345.942 136.045C350.66 138.94 355.912 140.376 361.623 140.376V134.376C356.966 134.376 352.81 133.22 349.08 130.931L345.942 136.045ZM361.623 140.376C367.334 140.376 372.586 138.94 377.304 136.045L374.166 130.931C370.436 133.22 366.28 134.376 361.623 134.376V140.376ZM377.278 136.06C382.089 133.174 385.828 129.157 388.476 124.074L383.154 121.302C381.002 125.435 378.021 128.618 374.191 130.916L377.278 136.06ZM388.476 124.074C391.122 118.993 392.415 113.325 392.415 107.136H386.415C386.415 112.467 385.308 117.167 383.154 121.302L388.476 124.074ZM468 74.736L466.401 77.2747L466.418 77.2854L466.435 77.2958L468 74.736ZM480.096 88.128L477.412 89.4696L477.426 89.4967L477.44 89.5234L480.096 88.128ZM480.096 126.72L477.43 125.343L477.426 125.352L477.421 125.36L480.096 126.72ZM468 140.112L466.401 137.573L466.39 137.58L466.38 137.587L468 140.112ZM435.456 141.12L433.944 143.711L433.976 143.73L434.008 143.748L435.456 141.12ZM424.368 130.464L426.905 128.864L421.368 120.08V130.464H424.368ZM423.072 171.504L421.078 169.262L420.947 169.379L420.829 169.511L423.072 171.504ZM416.88 171.504L414.758 173.625L416.88 171.504ZM416.88 71.424L414.758 69.3027L414.696 69.365L414.637 69.4309L416.88 71.424ZM423.072 71.424L420.829 73.4171L420.888 73.483L420.95 73.5453L423.072 71.424ZM424.368 84.384H421.368L426.993 85.8362L424.368 84.384ZM435.168 73.728L436.615 76.3555L435.168 73.728ZM463.392 133.2L464.998 135.734L465.006 135.729L465.014 135.724L463.392 133.2ZM472.752 122.544L470.08 121.18L470.068 121.202L470.057 121.225L472.752 122.544ZM472.752 92.304L470.057 93.6227L470.074 93.6574L470.092 93.6917L472.752 92.304ZM463.392 81.792L461.742 84.2975L461.777 84.3206L461.812 84.3428L463.392 81.792ZM436.32 81.648L434.741 79.0972L436.32 81.648ZM426.96 92.16L429.643 93.5016L429.649 93.4902L429.654 93.4787L426.96 92.16ZM426.96 122.544L424.265 123.863L426.96 122.544ZM436.32 133.2L434.697 135.724L434.719 135.737L434.741 135.751L436.32 133.2ZM450.72 72.84C456.51 72.84 461.713 74.3228 466.401 77.2747L469.598 72.1973C463.918 68.6212 457.601 66.84 450.72 66.84V72.84ZM466.435 77.2958C471.11 80.1528 474.768 84.181 477.412 89.4696L482.779 86.7864C479.663 80.555 475.257 75.6552 469.564 72.1761L466.435 77.2958ZM477.44 89.5234C480.166 94.7112 481.56 100.608 481.56 107.28H487.56C487.56 99.7444 485.977 92.8728 482.751 86.7326L477.44 89.5234ZM481.56 107.28C481.56 114.055 480.163 120.054 477.43 125.343L482.761 128.097C485.98 121.866 487.56 114.905 487.56 107.28H481.56ZM477.421 125.36C474.777 130.56 471.109 134.609 466.401 137.573L469.598 142.651C475.258 139.087 479.654 134.208 482.77 128.08L477.421 125.36ZM466.38 137.587C461.799 140.525 456.654 142.008 450.864 142.008V148.008C457.745 148.008 464.024 146.227 469.619 142.637L466.38 137.587ZM450.864 142.008C445.783 142.008 441.147 140.831 436.903 138.492L434.008 143.748C439.172 146.593 444.809 148.008 450.864 148.008V142.008ZM436.967 138.529C432.767 136.078 429.426 132.863 426.905 128.864L421.83 132.064C424.877 136.897 428.929 140.786 433.944 143.711L436.967 138.529ZM421.368 130.464V168.48H427.368V130.464H421.368ZM421.368 168.48C421.368 168.948 421.247 169.112 421.078 169.262L425.065 173.746C426.624 172.36 427.368 170.508 427.368 168.48H421.368ZM420.829 169.511C420.68 169.679 420.515 169.8 420.048 169.8V175.8C422.076 175.8 423.927 175.057 425.314 173.497L420.829 169.511ZM420.048 169.8C419.576 169.8 419.289 169.671 419.001 169.383L414.758 173.625C416.198 175.065 418.023 175.8 420.048 175.8V169.8ZM419.001 169.383C418.88 169.262 418.728 169.061 418.728 168.48H412.728C412.728 170.395 413.343 172.21 414.758 173.625L419.001 169.383ZM418.728 168.48V74.592H412.728V168.48H418.728ZM418.728 74.592C418.728 74.0153 418.883 73.6863 419.122 73.4171L414.637 69.4309C413.341 70.8897 412.728 72.6727 412.728 74.592H418.728ZM419.001 73.5453C419.289 73.2573 419.576 73.128 420.048 73.128V67.128C418.023 67.128 416.198 67.8627 414.758 69.3027L419.001 73.5453ZM420.048 73.128C420.515 73.128 420.68 73.2488 420.829 73.4171L425.314 69.4309C423.927 67.8712 422.076 67.128 420.048 67.128V73.128ZM420.95 73.5453C421.238 73.8334 421.368 74.1206 421.368 74.592H427.368C427.368 72.5674 426.633 70.7426 425.193 69.3027L420.95 73.5453ZM421.368 74.592V84.384H427.368V74.592H421.368ZM426.993 85.8362C429.203 81.8403 432.385 78.6865 436.615 76.3555L433.72 71.1005C428.542 73.9535 424.524 77.9037 421.742 82.9318L426.993 85.8362ZM436.615 76.3555C440.852 74.0213 445.533 72.84 450.72 72.84V66.84C444.578 66.84 438.892 68.2507 433.72 71.1005L436.615 76.3555ZM450 139.944C455.518 139.944 460.547 138.556 464.998 135.734L461.785 130.666C458.364 132.836 454.465 133.944 450 133.944V139.944ZM465.014 135.724C469.529 132.821 473.01 128.842 475.446 123.863L470.057 121.225C468.078 125.27 465.318 128.395 461.769 130.676L465.014 135.724ZM475.423 123.908C477.967 118.926 479.208 113.362 479.208 107.28H473.208C473.208 112.526 472.144 117.138 470.08 121.18L475.423 123.908ZM479.208 107.28C479.208 101.287 477.964 95.8091 475.411 90.9163L470.092 93.6917C472.147 97.6308 473.208 102.137 473.208 107.28H479.208ZM475.446 90.9853C473.005 85.9972 469.512 82.0526 464.971 79.2412L461.812 84.3428C465.335 86.5234 468.082 89.5867 470.057 93.6227L475.446 90.9853ZM465.042 79.2865C460.586 76.3524 455.542 74.904 450 74.904V80.904C454.442 80.904 458.325 82.0476 461.742 84.2975L465.042 79.2865ZM450 74.904C444.396 74.904 439.282 76.286 434.741 79.0972L437.899 84.1988C441.422 82.018 445.427 80.904 450 80.904V74.904ZM434.741 79.0972C430.199 81.9086 426.706 85.8532 424.265 90.8413L429.654 93.4787C431.629 89.4427 434.376 86.3794 437.899 84.1988L434.741 79.0972ZM424.276 90.8184C421.831 95.7084 420.648 101.219 420.648 107.28H426.648C426.648 102.013 427.672 97.4436 429.643 93.5016L424.276 90.8184ZM420.648 107.28C420.648 113.342 421.832 118.89 424.265 123.863L429.654 121.225C427.671 117.174 426.648 112.546 426.648 107.28H420.648ZM424.265 123.863C426.702 128.842 430.182 132.821 434.697 135.724L437.942 130.676C434.393 128.395 431.634 125.27 429.654 121.225L424.265 123.863ZM434.741 135.751C439.282 138.562 444.396 139.944 450 139.944V133.944C445.427 133.944 441.422 132.83 437.899 130.649L434.741 135.751ZM564.561 102.96H567.561V102.94L567.56 102.919L564.561 102.96ZM563.265 105.984L565.258 108.226L565.324 108.168L565.386 108.105L563.265 105.984ZM505.809 107.136V104.136H502.809V107.136H505.809ZM509.265 122.688L506.581 124.03L506.598 124.063L506.616 124.097L509.265 122.688ZM519.345 133.488L517.76 136.035L517.793 136.056L517.826 136.075L519.345 133.488ZM547.281 134.496L548.678 137.151L547.281 134.496ZM556.065 127.152L554.165 124.83L553.877 125.066L553.655 125.364L556.065 127.152ZM561.681 127.008L563.802 124.887V124.887L561.681 127.008ZM561.393 132.624L559.271 130.503L559.167 130.607L559.073 130.721L561.393 132.624ZM549.729 141.84L548.365 139.168L548.354 139.173L548.343 139.179L549.729 141.84ZM515.457 140.688L513.992 143.306L515.457 140.688ZM502.209 127.44L499.58 128.886L499.585 128.895L499.59 128.904L502.209 127.44ZM502.065 86.976L499.416 85.5665L499.412 85.5744L499.408 85.5824L502.065 86.976ZM514.593 73.44L516.122 76.0209L516.14 76.0105L516.157 75.9998L514.593 73.44ZM547.281 72.72L545.858 75.3614L545.869 75.367L545.879 75.3726L547.281 72.72ZM559.665 84.528L557.105 86.0923L559.665 84.528ZM515.601 82.8L513.727 80.4574L513.715 80.4666L513.703 80.476L515.601 82.8ZM506.529 99.36L503.579 98.8095L502.917 102.36H506.529V99.36ZM555.633 99.36V102.36H558.633V99.36H555.633ZM555.633 98.208H558.633V98.0418L558.614 97.8767L555.633 98.208ZM551.313 86.976L548.896 88.7532L548.908 88.7705L548.921 88.7876L551.313 86.976ZM542.241 79.632L540.928 82.3297L540.971 82.3508L541.015 82.3705L542.241 79.632ZM561.561 102.96C561.561 103.264 561.482 103.523 561.143 103.863L565.386 108.105C566.775 106.717 567.561 104.96 567.561 102.96H561.561ZM561.271 103.742C560.955 104.024 560.655 104.136 560.241 104.136V110.136C562.13 110.136 563.847 109.48 565.258 108.226L561.271 103.742ZM560.241 104.136H505.809V110.136H560.241V104.136ZM502.809 107.136C502.809 113.306 504.046 118.958 506.581 124.03L511.948 121.346C509.876 117.202 508.809 112.486 508.809 107.136H502.809ZM506.616 124.097C509.263 129.073 512.989 133.067 517.76 136.035L520.929 130.941C517.06 128.533 514.066 125.327 511.913 121.279L506.616 124.097ZM517.826 136.075C522.773 138.979 528.498 140.376 534.897 140.376V134.376C529.391 134.376 524.748 133.181 520.863 130.901L517.826 136.075ZM534.897 140.376C539.933 140.376 544.55 139.323 548.678 137.151L545.883 131.841C542.715 133.509 539.076 134.376 534.897 134.376V140.376ZM548.678 137.151C552.679 135.045 555.969 132.316 558.474 128.94L553.655 125.364C551.744 127.94 549.178 130.107 545.883 131.841L548.678 137.151ZM557.964 129.474C558.706 128.867 559.061 128.856 559.089 128.856V122.856C557.196 122.856 555.535 123.709 554.165 124.83L557.964 129.474ZM559.089 128.856C559.146 128.856 559.273 128.843 559.559 129.129L563.802 124.887C562.552 123.637 560.951 122.856 559.089 122.856V128.856ZM559.559 129.129C559.845 129.415 559.833 129.543 559.833 129.6H565.833C565.833 127.737 565.052 126.137 563.802 124.887L559.559 129.129ZM559.833 129.6C559.833 129.65 559.837 129.937 559.271 130.503L563.514 134.745C564.868 133.391 565.833 131.661 565.833 129.6H559.833ZM559.073 130.721C556.286 134.118 552.735 136.938 548.365 139.168L551.092 144.512C556.131 141.942 560.355 138.618 563.712 134.527L559.073 130.721ZM548.343 139.179C544.162 141.357 539.741 142.44 535.041 142.44V148.44C540.708 148.44 546.079 147.123 551.114 144.501L548.343 139.179ZM535.041 142.44C528.089 142.44 522.078 140.954 516.921 138.07L513.992 143.306C520.163 146.758 527.208 148.44 535.041 148.44V142.44ZM516.921 138.07C511.741 135.172 507.724 131.156 504.827 125.976L499.59 128.904C503.029 135.052 507.844 139.868 513.992 143.306L516.921 138.07ZM504.837 125.994C501.945 120.736 500.457 114.622 500.457 107.568H494.457C494.457 115.49 496.136 122.624 499.58 128.886L504.837 125.994ZM500.457 107.568C500.457 100.089 501.914 93.721 504.721 88.3696L499.408 85.5824C496.071 91.943 494.457 99.3026 494.457 107.568H500.457ZM504.713 88.3855C507.654 82.8599 511.466 78.78 516.122 76.0209L513.063 70.8591C507.351 74.244 502.811 79.1881 499.416 85.5665L504.713 88.3855ZM516.157 75.9998C520.888 73.1084 525.87 71.688 531.153 71.688V65.688C524.723 65.688 518.665 67.4356 513.028 70.8801L516.157 75.9998ZM531.153 71.688C536.424 71.688 541.311 72.9127 545.858 75.3614L548.703 70.0786C543.267 67.1513 537.401 65.688 531.153 65.688V71.688ZM545.879 75.3726C550.463 77.7943 554.202 81.3419 557.105 86.0923L562.224 82.9636C558.791 77.3461 554.274 73.0217 548.682 70.0674L545.879 75.3726ZM557.105 86.0923C559.948 90.7443 561.471 96.3425 561.561 103.001L567.56 102.919C567.458 95.3695 565.718 88.6797 562.224 82.9636L557.105 86.0923ZM531.153 74.04C524.832 74.04 519 76.2389 513.727 80.4574L517.475 85.1426C521.802 81.6811 526.337 80.04 531.153 80.04V74.04ZM513.703 80.476C508.343 84.8521 505.026 91.0624 503.579 98.8095L509.478 99.9105C510.72 93.2576 513.45 88.4279 517.498 85.124L513.703 80.476ZM506.529 102.36H555.633V96.36H506.529V102.36ZM558.633 99.36V98.208H552.633V99.36H558.633ZM558.614 97.8767C558.08 93.071 556.461 88.8034 553.704 85.1644L548.921 88.7876C550.964 91.4846 552.225 94.705 552.651 98.5393L558.614 97.8767ZM553.729 85.1988C551.026 81.5227 547.594 78.7405 543.466 76.8935L541.015 82.3705C544.183 83.7875 546.799 85.9013 548.896 88.7532L553.729 85.1988ZM543.553 76.9343C539.604 75.0132 535.461 74.04 531.153 74.04V80.04C534.525 80.04 537.773 80.7947 540.928 82.3297L543.553 76.9343ZM616.784 68.688V65.688H616.76L616.737 65.6884L616.784 68.688ZM621.968 69.84L623.31 67.1567V67.1567L621.968 69.84ZM623.12 76.608L625.242 78.7293L625.304 78.667L625.362 78.6011L623.12 76.608ZM617.504 77.04L616.495 79.8652L616.525 79.876L616.555 79.886L617.504 77.04ZM602.96 80.496L604.802 82.8641L604.811 82.8572L602.96 80.496ZM594.32 91.008L591.673 89.5962L591.661 89.6193L591.649 89.6427L594.32 91.008ZM589.712 142.848L587.591 140.727L589.712 142.848ZM583.52 142.848L581.278 144.841L581.395 144.973L581.527 145.09L583.52 142.848ZM583.52 72.144L585.641 74.2653L583.52 72.144ZM589.712 72.144L587.47 74.1371L587.587 74.269L587.719 74.3862L589.712 72.144ZM591.008 87.84H588.008L593.79 88.9626L591.008 87.84ZM600.944 74.304L602.824 76.6416L602.83 76.6369L600.944 74.304ZM616.784 71.688C618.294 71.688 619.554 71.9871 620.627 72.5233L623.31 67.1567C621.31 66.1569 619.114 65.688 616.784 65.688V71.688ZM620.627 72.5233C621.039 72.7293 621.167 72.8953 621.2 72.9441C621.22 72.9741 621.272 73.0529 621.272 73.296H627.272C627.272 72.003 626.94 70.7379 626.192 69.6159C625.457 68.5127 624.434 67.7187 623.31 67.1567L620.627 72.5233ZM621.272 73.296C621.272 74.0322 621.08 74.388 620.878 74.6149L625.362 78.6011C626.697 77.1 627.272 75.2478 627.272 73.296H621.272ZM620.999 74.4867C620.776 74.71 620.62 74.76 620.384 74.76V80.76C622.261 80.76 623.929 80.042 625.242 78.7293L620.999 74.4867ZM620.384 74.76C620.491 74.76 620.519 74.7711 620.427 74.7558C620.348 74.7426 620.22 74.7165 620.032 74.6696C619.654 74.5752 619.134 74.421 618.453 74.1939L616.555 79.886C617.314 80.139 617.994 80.3448 618.577 80.4904C619.099 80.621 619.757 80.76 620.384 80.76V74.76ZM618.513 74.2148C616.891 73.6355 615.254 73.32 613.616 73.32V79.32C614.475 79.32 615.429 79.4845 616.495 79.8652L618.513 74.2148ZM613.616 73.32C609.23 73.32 605.045 75.0506 601.11 78.1348L604.811 82.8572C607.98 80.3734 610.899 79.32 613.616 79.32V73.32ZM601.118 78.1279C597.292 81.1036 594.152 84.9486 591.673 89.5962L596.967 92.4198C599.096 88.4274 601.716 85.2644 604.802 82.8641L601.118 78.1279ZM591.649 89.6427C589.247 94.3429 588.008 99.1758 588.008 104.112H594.008C594.008 100.216 594.978 96.3131 596.992 92.3733L591.649 89.6427ZM588.008 104.112V139.68H594.008V104.112H588.008ZM588.008 139.68C588.008 140.151 587.879 140.439 587.591 140.727L591.833 144.969C593.273 143.529 594.008 141.705 594.008 139.68H588.008ZM587.591 140.727C587.47 140.847 587.269 141 586.688 141V147C588.603 147 590.418 146.385 591.833 144.969L587.591 140.727ZM586.688 141C586.111 141 585.782 140.845 585.513 140.606L581.527 145.09C582.986 146.387 584.769 147 586.688 147V141ZM585.762 140.855C585.523 140.586 585.368 140.257 585.368 139.68H579.368C579.368 141.599 579.981 143.382 581.278 144.841L585.762 140.855ZM585.368 139.68V75.168H579.368V139.68H585.368ZM585.368 75.168C585.368 74.587 585.521 74.3858 585.641 74.2653L581.399 70.0227C579.983 71.4381 579.368 73.253 579.368 75.168H585.368ZM585.641 74.2653C585.93 73.9773 586.217 73.848 586.688 73.848V67.848C584.664 67.848 582.839 68.5827 581.399 70.0227L585.641 74.2653ZM586.688 73.848C587.156 73.848 587.32 73.9688 587.47 74.1371L591.954 70.1509C590.568 68.5912 588.716 67.848 586.688 67.848V73.848ZM587.719 74.3862C587.887 74.5358 588.008 74.7001 588.008 75.168H594.008C594.008 73.1399 593.265 71.2882 591.705 69.9018L587.719 74.3862ZM588.008 75.168V87.84H594.008V75.168H588.008ZM593.79 88.9626C595.815 83.9456 598.825 79.8588 602.824 76.6416L599.064 71.9664C594.232 75.8532 590.618 80.7904 588.226 86.7174L593.79 88.9626ZM602.83 76.6369C606.798 73.4291 611.423 71.7735 616.832 71.6876L616.737 65.6884C610.049 65.7945 604.115 67.8829 599.058 71.9711L602.83 76.6369ZM633.598 132.336L631.043 133.908L631.136 134.059L631.246 134.197L633.598 132.336ZM634.318 126.288L635.741 128.929L636.128 128.721L636.44 128.409L634.318 126.288ZM639.79 126.864L642.183 125.054L642.058 124.889L641.912 124.743L639.79 126.864ZM674.35 134.928L675.947 137.468L675.956 137.462L675.966 137.456L674.35 134.928ZM674.782 116.352L676.393 113.821L674.782 116.352ZM661.534 111.168L662.274 108.26L662.27 108.26L661.534 111.168ZM642.814 103.392L641.056 105.823L641.073 105.835L641.091 105.847L642.814 103.392ZM639.358 78.624L641.794 80.3749L641.807 80.3572L641.82 80.3394L639.358 78.624ZM648.286 71.28L647.055 68.5442L647.042 68.5501L647.029 68.5561L648.286 71.28ZM673.63 71.136L672.527 73.9259L672.566 73.9412L672.605 73.9554L673.63 71.136ZM684.43 78.624L682.157 80.5816L682.352 80.8083L682.589 80.9921L684.43 78.624ZM684.286 84.528L686.239 86.8058L686.266 86.7822L686.293 86.7579L684.286 84.528ZM679.102 84.24L676.86 86.2331L676.919 86.299L676.981 86.3613L679.102 84.24ZM649.006 79.488L647.377 76.9693L647.359 76.9804L647.342 76.9918L649.006 79.488ZM644.254 88.992H641.254V89.0669L641.258 89.1418L644.254 88.992ZM649.438 97.776L647.862 100.328L647.878 100.339L647.895 100.348L649.438 97.776ZM664.126 103.248L663.389 106.156L663.399 106.158L664.126 103.248ZM684.43 113.904L682.001 115.664L682.02 115.691L682.04 115.717L684.43 113.904ZM680.11 139.968L681.88 142.39L681.896 142.379L681.91 142.368L680.11 139.968ZM636.153 130.764C635.846 130.264 635.659 129.873 635.554 129.583C635.447 129.29 635.446 129.163 635.446 129.168H629.446C629.446 130.851 630.164 132.479 631.043 133.908L636.153 130.764ZM635.446 129.168C635.446 129.108 635.454 129.09 635.45 129.102C635.447 129.115 635.438 129.134 635.43 129.147C635.41 129.178 635.456 129.083 635.741 128.929L632.896 123.647C630.837 124.755 629.446 126.645 629.446 129.168H635.446ZM636.44 128.409C636.435 128.414 636.424 128.423 636.409 128.434C636.393 128.444 636.382 128.448 636.38 128.449C636.375 128.451 636.442 128.424 636.622 128.424V122.424C635.02 122.424 633.435 122.928 632.197 124.167L636.44 128.409ZM636.622 128.424C636.838 128.424 637.164 128.48 637.669 128.985L641.912 124.743C640.497 123.328 638.711 122.424 636.622 122.424V128.424ZM637.398 128.674C643.63 136.913 652.053 141.096 662.398 141.096V135.096C653.928 135.096 647.279 131.791 642.183 125.054L637.398 128.674ZM662.398 141.096C667.479 141.096 672.036 139.926 675.947 137.468L672.754 132.388C669.945 134.154 666.534 135.096 662.398 135.096V141.096ZM675.966 137.456C680.291 134.693 682.534 130.568 682.534 125.424H676.534C676.534 128.536 675.322 130.747 672.735 132.4L675.966 137.456ZM682.534 125.424C682.534 120.457 680.5 116.435 676.393 113.821L673.172 118.883C675.401 120.301 676.534 122.327 676.534 125.424H682.534ZM676.393 113.821C672.85 111.566 668.095 109.74 662.274 108.26L660.795 114.076C666.302 115.476 670.379 117.105 673.172 118.883L676.393 113.821ZM662.27 108.26C654.499 106.294 648.642 103.818 644.538 100.937L641.091 105.847C646.01 109.302 652.634 112.01 660.799 114.076L662.27 108.26ZM644.573 100.961C640.943 98.3357 639.046 94.5476 639.046 89.136H633.046C633.046 96.2044 635.662 101.92 641.056 105.823L644.573 100.961ZM639.046 89.136C639.046 85.8012 639.969 82.9152 641.794 80.3749L636.922 76.8731C634.332 80.4768 633.046 84.5988 633.046 89.136H639.046ZM641.82 80.3394C643.702 77.6383 646.249 75.5243 649.544 74.0039L647.029 68.5561C642.836 70.4917 639.431 73.2737 636.897 76.9086L641.82 80.3394ZM649.518 74.0158C652.92 72.4847 656.812 71.688 661.246 71.688V65.688C656.081 65.688 651.333 66.6193 647.055 68.5442L649.518 74.0158ZM661.246 71.688C664.969 71.688 668.724 72.4222 672.527 73.9259L674.733 68.3461C670.281 66.5858 665.78 65.688 661.246 65.688V71.688ZM672.605 73.9554C676.339 75.3131 679.511 77.509 682.157 80.5816L686.704 76.6664C683.398 72.827 679.37 70.0309 674.656 68.3166L672.605 73.9554ZM682.589 80.9921C682.626 81.0208 682.642 81.0399 682.648 81.0476C682.654 81.0549 682.66 81.0634 682.667 81.0791C682.679 81.107 682.726 81.2268 682.726 81.504H688.726C688.726 79.4775 687.976 77.581 686.272 76.2559L682.589 80.9921ZM682.726 81.504C682.726 81.6974 682.693 81.9264 682.28 82.2981L686.293 86.7579C687.8 85.4016 688.726 83.6146 688.726 81.504H682.726ZM682.334 82.2502C682.307 82.2738 682.179 82.392 681.694 82.392V88.392C683.322 88.392 684.922 87.9342 686.239 86.8058L682.334 82.2502ZM681.694 82.392C681.637 82.392 681.51 82.4046 681.224 82.1187L676.981 86.3613C678.231 87.6114 679.832 88.392 681.694 88.392V82.392ZM681.345 82.2469C678.748 79.3252 675.647 77.0933 672.066 75.5742L669.723 81.0977C672.478 82.2667 674.849 83.9708 676.86 86.2331L681.345 82.2469ZM672.066 75.5742C668.506 74.0637 664.696 73.32 660.67 73.32V79.32C663.94 79.32 666.947 79.9203 669.723 81.0977L672.066 75.5742ZM660.67 73.32C655.675 73.32 651.2 74.4953 647.377 76.9693L650.636 82.0067C653.341 80.2567 656.642 79.32 660.67 79.32V73.32ZM647.342 76.9918C643.238 79.7283 641.254 83.8941 641.254 88.992H647.254C647.254 85.6419 648.439 83.4717 650.671 81.9841L647.342 76.9918ZM641.258 89.1418C641.499 93.9649 643.756 97.7924 647.862 100.328L651.015 95.2236C648.593 93.7276 647.394 91.6991 647.251 88.8422L641.258 89.1418ZM647.895 100.348C651.62 102.583 656.84 104.494 663.389 106.156L664.864 100.34C658.548 98.7376 653.977 97.0005 650.982 95.2035L647.895 100.348ZM663.399 106.158C668.274 107.377 672.202 108.712 675.233 110.138L677.788 104.71C674.29 103.064 669.962 101.615 664.854 100.338L663.399 106.158ZM675.233 110.138C678.062 111.47 680.297 113.311 682.001 115.664L686.86 112.144C684.532 108.929 681.487 106.45 677.788 104.71L675.233 110.138ZM682.04 115.717C683.647 117.835 684.598 120.83 684.598 124.992H690.598C690.598 119.938 689.438 115.541 686.82 112.091L682.04 115.717ZM684.598 124.992C684.598 130.288 682.547 134.391 678.31 137.568L681.91 142.368C687.658 138.057 690.598 132.176 690.598 124.992H684.598ZM678.34 137.546C673.957 140.749 668.418 142.44 661.534 142.44V148.44C669.435 148.44 676.28 146.483 681.88 142.39L678.34 137.546ZM661.534 142.44C650.685 142.44 642.261 138.45 635.951 130.475L631.246 134.197C638.76 143.694 648.96 148.44 661.534 148.44V142.44Z" fill="#3DA9FC"/>
</svg>
