<svg width="675" height="142" viewBox="0 0 675 142" fill="none" xmlns="http://www.w3.org/2000/svg">
<path d="M129.278 8.912C130.622 8.912 131.726 9.296 132.59 10.064C133.454 10.832 133.886 11.888 133.886 13.232L133.598 15.104L101.774 107.264C101.486 108.128 100.958 108.8 100.19 109.28C99.5176 109.76 98.7496 110 97.8856 110C95.6776 110 94.2376 109.088 93.5656 107.264L68.6536 45.776L43.7416 107.264C42.8776 109.088 41.4376 110 39.4216 110C38.5576 110 37.7416 109.76 36.9736 109.28C36.3016 108.8 35.8696 108.128 35.6776 107.264L3.85356 15.104C3.56556 14.528 3.42156 13.952 3.42156 13.376C3.42156 12.032 3.90156 10.976 4.86156 10.208C5.91756 9.344 7.02156 8.912 8.17356 8.912C9.13356 8.912 9.99756 9.152 10.7656 9.632C11.5336 10.112 12.0616 10.784 12.3496 11.648L40.5736 94.016L64.7656 33.68C65.6296 31.76 66.9736 30.848 68.7976 30.944C69.7576 30.848 70.5736 31.088 71.2456 31.664C72.0136 32.144 72.5896 32.816 72.9736 33.68L97.0216 94.016L124.958 11.648C125.726 9.824 127.166 8.912 129.278 8.912ZM209.654 68.96C209.654 70.112 209.222 71.12 208.358 71.984C207.494 72.752 206.486 73.136 205.334 73.136H150.902C150.902 78.896 152.054 84.08 154.358 88.688C156.758 93.2 160.118 96.8 164.438 99.488C168.854 102.08 174.038 103.376 179.99 103.376C184.598 103.376 188.726 102.416 192.374 100.496C196.022 98.576 198.95 96.128 201.158 93.152C202.214 92.288 203.222 91.856 204.182 91.856C205.142 91.856 206.006 92.24 206.774 93.008C207.542 93.776 207.926 94.64 207.926 95.6C207.926 96.656 207.446 97.664 206.486 98.624C203.414 102.368 199.526 105.44 194.822 107.84C190.214 110.24 185.318 111.44 180.134 111.44C172.742 111.44 166.214 109.856 160.55 106.688C154.886 103.52 150.47 99.104 147.302 93.44C144.134 87.68 142.55 81.056 142.55 73.568C142.55 65.696 144.086 58.832 147.158 52.976C150.326 47.024 154.502 42.512 159.686 39.44C164.87 36.272 170.39 34.688 176.246 34.688C182.006 34.688 187.382 36.032 192.374 38.72C197.462 41.408 201.59 45.344 204.758 50.528C207.926 55.712 209.558 61.856 209.654 68.96ZM176.246 43.04C170.678 43.04 165.494 44.96 160.694 48.8C155.99 52.64 152.966 58.16 151.622 65.36H200.726V64.208C200.246 59.888 198.806 56.144 196.406 52.976C194.006 49.712 190.982 47.264 187.334 45.632C183.782 43.904 180.086 43.04 176.246 43.04ZM262.454 34.688C268.79 34.688 274.55 36.32 279.734 39.584C284.918 42.848 288.95 47.408 291.83 53.264C294.806 59.024 296.294 65.552 296.294 72.848C296.294 80.048 294.806 86.624 291.83 92.576C288.95 98.432 284.918 103.04 279.734 106.4C274.646 109.76 268.934 111.44 262.598 111.44C257.126 111.44 252.038 110.096 247.334 107.408C242.726 104.624 238.982 100.976 236.102 96.464V105.968C236.102 107.216 235.67 108.272 234.806 109.136C234.038 110 233.03 110.432 231.782 110.432C230.534 110.432 229.478 110 228.614 109.136C227.846 108.272 227.462 107.216 227.462 105.968V7.90399C227.462 6.65599 227.846 5.64799 228.614 4.88C229.478 4.016 230.534 3.584 231.782 3.584C233.03 3.584 234.038 4.016 234.806 4.88C235.67 5.64799 236.102 6.65599 236.102 7.90399V50.384C238.694 45.68 242.342 41.888 247.046 39.008C251.75 36.128 256.886 34.688 262.454 34.688ZM261.734 103.376C266.726 103.376 271.19 102.032 275.126 99.344C279.158 96.656 282.278 93.008 284.486 88.4C286.79 83.696 287.942 78.512 287.942 72.848C287.942 67.088 286.79 61.952 284.486 57.44C282.278 52.832 279.158 49.232 275.126 46.64C271.19 44.048 266.726 42.752 261.734 42.752C256.646 42.752 252.086 44.048 248.054 46.64C244.022 49.136 240.902 52.688 238.694 57.296C236.486 61.904 235.382 67.088 235.382 72.848C235.382 78.608 236.486 83.84 238.694 88.544C240.998 93.152 244.118 96.8 248.054 99.488C252.086 102.08 256.646 103.376 261.734 103.376ZM382.055 73.136C382.055 80.336 380.471 86.864 377.303 92.72C374.135 98.576 369.767 103.184 364.199 106.544C358.631 109.808 352.439 111.44 345.623 111.44C338.807 111.44 332.615 109.808 327.047 106.544C321.479 103.184 317.111 98.576 313.943 92.72C310.775 86.864 309.191 80.336 309.191 73.136C309.191 65.936 310.775 59.408 313.943 53.552C317.111 47.696 321.479 43.088 327.047 39.728C332.615 36.368 338.807 34.688 345.623 34.688C352.439 34.688 358.631 36.368 364.199 39.728C369.767 43.088 374.135 47.696 377.303 53.552C380.471 59.408 382.055 65.936 382.055 73.136ZM373.415 73.136C373.415 67.376 372.215 62.192 369.815 57.584C367.415 52.976 364.055 49.376 359.735 46.784C355.511 44.096 350.807 42.752 345.623 42.752C340.439 42.752 335.735 44.096 331.511 46.784C327.287 49.376 323.927 52.976 321.431 57.584C319.031 62.192 317.831 67.376 317.831 73.136C317.831 78.8 319.031 83.936 321.431 88.544C323.927 93.152 327.287 96.8 331.511 99.488C335.735 102.08 340.439 103.376 345.623 103.376C350.807 103.376 355.511 102.08 359.735 99.488C364.055 96.896 367.415 93.296 369.815 88.688C372.215 84.08 373.415 78.896 373.415 73.136ZM434.72 35.84C441.056 35.84 446.816 37.472 452 40.736C457.184 43.904 461.216 48.368 464.096 54.128C467.072 59.792 468.56 66.176 468.56 73.28C468.56 80.48 467.072 86.96 464.096 92.72C461.216 98.384 457.184 102.848 452 106.112C446.912 109.376 441.2 111.008 434.864 111.008C429.296 111.008 424.16 109.712 419.456 107.12C414.848 104.432 411.152 100.88 408.368 96.464V134.48C408.368 135.728 407.936 136.736 407.072 137.504C406.304 138.368 405.296 138.8 404.048 138.8C402.8 138.8 401.744 138.368 400.88 137.504C400.112 136.736 399.728 135.728 399.728 134.48V40.592C399.728 39.344 400.112 38.288 400.88 37.424C401.744 36.56 402.8 36.128 404.048 36.128C405.296 36.128 406.304 36.56 407.072 37.424C407.936 38.288 408.368 39.344 408.368 40.592V50.384C410.864 45.872 414.464 42.32 419.168 39.728C423.872 37.136 429.056 35.84 434.72 35.84ZM434 102.944C438.992 102.944 443.456 101.696 447.392 99.2C451.424 96.608 454.544 93.056 456.752 88.544C459.056 84.032 460.208 78.944 460.208 73.28C460.208 67.712 459.056 62.72 456.752 58.304C454.544 53.792 451.424 50.288 447.392 47.792C443.456 45.2 438.992 43.904 434 43.904C428.912 43.904 424.352 45.152 420.32 47.648C416.288 50.144 413.168 53.648 410.96 58.16C408.752 62.576 407.648 67.616 407.648 73.28C407.648 78.944 408.752 84.032 410.96 88.544C413.168 93.056 416.288 96.608 420.32 99.2C424.352 101.696 428.912 102.944 434 102.944ZM548.561 68.96C548.561 70.112 548.129 71.12 547.265 71.984C546.401 72.752 545.393 73.136 544.241 73.136H489.809C489.809 78.896 490.961 84.08 493.265 88.688C495.665 93.2 499.025 96.8 503.345 99.488C507.761 102.08 512.945 103.376 518.897 103.376C523.505 103.376 527.633 102.416 531.281 100.496C534.929 98.576 537.857 96.128 540.065 93.152C541.121 92.288 542.129 91.856 543.089 91.856C544.049 91.856 544.913 92.24 545.681 93.008C546.449 93.776 546.833 94.64 546.833 95.6C546.833 96.656 546.353 97.664 545.393 98.624C542.321 102.368 538.433 105.44 533.729 107.84C529.121 110.24 524.225 111.44 519.041 111.44C511.649 111.44 505.121 109.856 499.457 106.688C493.793 103.52 489.377 99.104 486.209 93.44C483.041 87.68 481.457 81.056 481.457 73.568C481.457 65.696 482.993 58.832 486.065 52.976C489.233 47.024 493.409 42.512 498.593 39.44C503.777 36.272 509.297 34.688 515.153 34.688C520.913 34.688 526.289 36.032 531.281 38.72C536.369 41.408 540.497 45.344 543.665 50.528C546.833 55.712 548.465 61.856 548.561 68.96ZM515.153 43.04C509.585 43.04 504.401 44.96 499.601 48.8C494.897 52.64 491.873 58.16 490.529 65.36H539.633V64.208C539.153 59.888 537.713 56.144 535.313 52.976C532.913 49.712 529.889 47.264 526.241 45.632C522.689 43.904 518.993 43.04 515.153 43.04ZM600.784 34.688C602.704 34.688 604.432 35.072 605.968 35.84C607.504 36.608 608.272 37.76 608.272 39.296C608.272 40.64 607.888 41.744 607.12 42.608C606.352 43.376 605.44 43.76 604.384 43.76C603.904 43.76 602.944 43.52 601.504 43.04C600.16 42.56 598.864 42.32 597.616 42.32C594.064 42.32 590.512 43.712 586.96 46.496C583.504 49.184 580.624 52.688 578.32 57.008C576.112 61.328 575.008 65.696 575.008 70.112V105.68C575.008 106.928 574.576 107.984 573.712 108.848C572.944 109.616 571.936 110 570.688 110C569.44 110 568.384 109.616 567.52 108.848C566.752 107.984 566.368 106.928 566.368 105.68V41.168C566.368 39.92 566.752 38.912 567.52 38.144C568.384 37.28 569.44 36.848 570.688 36.848C571.936 36.848 572.944 37.28 573.712 38.144C574.576 38.912 575.008 39.92 575.008 41.168V53.84C577.216 48.368 580.528 43.856 584.944 40.304C589.456 36.656 594.736 34.784 600.784 34.688ZM617.598 98.336C616.83 97.088 616.446 96.032 616.446 95.168C616.446 93.92 617.07 92.96 618.318 92.288C618.894 91.712 619.662 91.424 620.622 91.424C621.774 91.424 622.83 91.904 623.79 92.864C629.454 100.352 636.99 104.096 646.398 104.096C651.006 104.096 654.99 103.04 658.35 100.928C661.806 98.72 663.534 95.552 663.534 91.424C663.534 87.392 661.95 84.368 658.782 82.352C655.614 80.336 651.198 78.608 645.534 77.168C637.566 75.152 631.326 72.56 626.814 69.392C622.302 66.128 620.046 61.376 620.046 55.136C620.046 51.2 621.15 47.696 623.358 44.624C625.566 41.456 628.542 39.008 632.286 37.28C636.126 35.552 640.446 34.688 645.246 34.688C649.374 34.688 653.502 35.504 657.63 37.136C661.854 38.672 665.454 41.168 668.43 44.624C669.294 45.296 669.726 46.256 669.726 47.504C669.726 48.656 669.246 49.664 668.286 50.528C667.614 51.104 666.75 51.392 665.694 51.392C664.734 51.392 663.87 51.008 663.102 50.24C660.798 47.648 658.062 45.68 654.894 44.336C651.726 42.992 648.318 42.32 644.67 42.32C640.158 42.32 636.27 43.376 633.006 45.488C629.838 47.6 628.254 50.768 628.254 54.992C628.446 58.832 630.174 61.76 633.438 63.776C636.798 65.792 641.694 67.616 648.126 69.248C653.118 70.496 657.246 71.888 660.51 73.424C663.774 74.96 666.414 77.12 668.43 79.904C670.542 82.688 671.598 86.384 671.598 90.992C671.598 97.232 669.102 102.224 664.11 105.968C659.118 109.616 652.926 111.44 645.534 111.44C633.822 111.44 624.51 107.072 617.598 98.336Z" fill="white"/>
<path d="M132.59 10.064L130.596 12.3062L130.596 12.3062L132.59 10.064ZM133.886 13.232L136.851 13.6882L136.886 13.4614V13.232H133.886ZM133.598 15.104L136.433 16.0832L136.522 15.8275L136.563 15.5602L133.598 15.104ZM101.774 107.264L98.9379 106.285L98.9326 106.3L98.9275 106.315L101.774 107.264ZM100.19 109.28L98.5996 106.736L98.5211 106.785L98.4458 106.839L100.19 109.28ZM93.5656 107.264L96.3806 106.227L96.364 106.182L96.346 106.137L93.5656 107.264ZM68.6536 45.776L71.434 44.6495L68.6536 37.7867L65.8731 44.6495L68.6536 45.776ZM43.7416 107.264L46.4528 108.548L46.4897 108.47L46.522 108.391L43.7416 107.264ZM36.9736 109.28L35.2298 111.721L35.3051 111.775L35.3836 111.824L36.9736 109.28ZM35.6776 107.264L38.6061 106.613L38.569 106.446L38.5133 106.285L35.6776 107.264ZM3.85356 15.104L6.68926 14.1248L6.62495 13.9386L6.53684 13.7624L3.85356 15.104ZM4.86156 10.208L6.73564 12.5506L6.74852 12.5403L6.76128 12.5299L4.86156 10.208ZM10.7656 9.632L9.17557 12.176L9.17557 12.176L10.7656 9.632ZM12.3496 11.648L9.50351 12.5967L9.50748 12.6086L9.51155 12.6205L12.3496 11.648ZM40.5736 94.016L37.7356 94.9885L40.353 102.627L43.3581 95.1325L40.5736 94.016ZM64.7656 33.68L62.0298 32.4489L62.0042 32.5057L61.9811 32.5635L64.7656 33.68ZM68.7976 30.944L68.6399 33.9399L68.8684 33.9519L69.0961 33.9291L68.7976 30.944ZM71.2456 31.664L69.2932 33.9418L69.4644 34.0885L69.6556 34.208L71.2456 31.664ZM72.9736 33.68L75.7604 32.5693L75.7387 32.515L75.715 32.4616L72.9736 33.68ZM97.0216 94.016L94.2348 95.1267L97.2483 102.688L99.8626 94.9796L97.0216 94.016ZM124.958 11.648L122.193 10.4838L122.151 10.5828L122.117 10.6844L124.958 11.648ZM129.278 11.912C130.014 11.912 130.37 12.1046 130.596 12.3062L134.583 7.82177C133.082 6.48743 131.229 5.912 129.278 5.912V11.912ZM130.596 12.3062C130.714 12.4103 130.886 12.5913 130.886 13.232H136.886C136.886 11.1846 136.194 9.25369 134.583 7.82177L130.596 12.3062ZM130.92 12.7758L130.632 14.6478L136.563 15.5602L136.851 13.6882L130.92 12.7758ZM130.762 14.1248L98.9379 106.285L104.609 108.243L136.433 16.0832L130.762 14.1248ZM98.9275 106.315C98.8587 106.522 98.7726 106.628 98.5996 106.736L101.78 111.824C103.143 110.972 104.112 109.734 104.62 108.213L98.9275 106.315ZM98.4458 106.839C98.3071 106.938 98.1551 107 97.8856 107V113C99.3441 113 100.728 112.582 101.933 111.721L98.4458 106.839ZM97.8856 107C97.1846 107 96.8718 106.856 96.7547 106.782C96.6682 106.727 96.5222 106.611 96.3806 106.227L90.7505 108.301C91.2809 109.741 92.1909 110.993 93.5444 111.85C94.8674 112.688 96.3785 113 97.8856 113V107ZM96.346 106.137L71.434 44.6495L65.8731 46.9025L90.7851 108.391L96.346 106.137ZM65.8731 44.6495L40.9611 106.137L46.522 108.391L71.434 46.9025L65.8731 44.6495ZM41.0303 105.98C40.796 106.474 40.5666 106.681 40.4084 106.782C40.2504 106.882 39.9665 107 39.4216 107V113C40.8926 113 42.3367 112.662 43.6187 111.85C44.9005 111.039 45.8231 109.878 46.4528 108.548L41.0303 105.98ZM39.4216 107C39.1476 107 38.8789 106.933 38.5636 106.736L35.3836 111.824C36.6043 112.587 37.9675 113 39.4216 113V107ZM38.7173 106.839C38.6958 106.823 38.685 106.813 38.6805 106.808C38.6762 106.804 38.6729 106.8 38.6691 106.794C38.6638 106.786 38.6337 106.737 38.6061 106.613L32.749 107.915C33.089 109.445 33.9101 110.779 35.2298 111.721L38.7173 106.839ZM38.5133 106.285L6.68926 14.1248L1.01787 16.0832L32.8419 108.243L38.5133 106.285ZM6.53684 13.7624C6.43227 13.5532 6.42156 13.4337 6.42156 13.376H0.421563C0.421563 14.4703 0.69885 15.5028 1.17028 16.4456L6.53684 13.7624ZM6.42156 13.376C6.42156 12.8463 6.5598 12.6913 6.73564 12.5506L2.98748 7.86539C1.24332 9.26071 0.421563 11.2177 0.421563 13.376H6.42156ZM6.76128 12.5299C7.38447 12.02 7.83661 11.912 8.17356 11.912V5.912C6.20651 5.912 4.45065 6.66801 2.96185 7.88613L6.76128 12.5299ZM8.17356 11.912C8.60657 11.912 8.91341 12.0121 9.17557 12.176L12.3556 7.088C11.0817 6.29185 9.66056 5.912 8.17356 5.912V11.912ZM9.17557 12.176C9.34857 12.2841 9.43469 12.3902 9.50351 12.5967L15.1956 10.6993C14.6884 9.17777 13.7186 7.93987 12.3556 7.088L9.17557 12.176ZM9.51155 12.6205L37.7356 94.9885L43.4116 93.0435L15.1876 10.6755L9.51155 12.6205ZM43.3581 95.1325L67.5501 34.7965L61.9811 32.5635L37.7891 92.8995L43.3581 95.1325ZM67.5013 34.9111C67.7718 34.3101 68.011 34.1029 68.1061 34.0384C68.1696 33.9953 68.296 33.9218 68.6399 33.9399L68.9552 27.9481C67.4751 27.8702 66.0175 28.2047 64.7371 29.0736C63.4881 29.9211 62.6234 31.1298 62.0298 32.4489L67.5013 34.9111ZM69.0961 33.9291C69.2425 33.9145 69.2928 33.933 69.2831 33.9301C69.2806 33.9294 69.2757 33.9274 69.2721 33.9254C69.2688 33.9236 69.2758 33.9268 69.2932 33.9418L73.1979 29.3862C71.8442 28.2259 70.193 27.7895 68.4991 27.9589L69.0961 33.9291ZM69.6556 34.208C69.893 34.3564 70.0798 34.5558 70.2321 34.8984L75.715 32.4616C75.0993 31.0762 74.1341 29.9316 72.8356 29.12L69.6556 34.208ZM70.1868 34.7907L94.2348 95.1267L99.8084 92.9053L75.7604 32.5693L70.1868 34.7907ZM99.8626 94.9796L127.799 12.6116L122.117 10.6844L94.1805 93.0524L99.8626 94.9796ZM127.722 12.8122C127.908 12.371 128.096 12.2083 128.219 12.1305C128.355 12.0438 128.654 11.912 129.278 11.912V5.912C127.789 5.912 126.312 6.23615 125.008 7.06154C123.691 7.89567 122.775 9.10104 122.193 10.4838L127.722 12.8122ZM209.654 68.96H212.654V68.9397L212.654 68.9195L209.654 68.96ZM208.358 71.984L210.351 74.2262L210.417 74.1677L210.48 74.1053L208.358 71.984ZM150.902 73.136V70.136H147.902V73.136H150.902ZM154.358 88.688L151.675 90.0296L151.692 90.0635L151.71 90.0968L154.358 88.688ZM164.438 99.488L162.853 102.035L162.886 102.056L162.92 102.075L164.438 99.488ZM192.374 100.496L193.772 103.151L193.772 103.151L192.374 100.496ZM201.158 93.152L199.259 90.8301L198.971 91.0657L198.749 91.3645L201.158 93.152ZM206.774 93.008L208.896 90.8867L208.896 90.8867L206.774 93.008ZM206.486 98.624L204.365 96.5027L204.261 96.607L204.167 96.721L206.486 98.624ZM194.822 107.84L193.459 105.168L193.448 105.173L193.437 105.179L194.822 107.84ZM160.55 106.688L159.086 109.306L159.086 109.306L160.55 106.688ZM147.302 93.44L144.674 94.8858L144.679 94.8951L144.684 94.9045L147.302 93.44ZM147.158 52.976L144.51 51.5664L144.506 51.5744L144.502 51.5823L147.158 52.976ZM159.686 39.44L161.216 42.0209L161.233 42.0105L161.251 41.9998L159.686 39.44ZM192.374 38.72L190.952 41.3614L190.962 41.367L190.973 41.3726L192.374 38.72ZM204.758 50.528L202.198 52.0923L202.198 52.0923L204.758 50.528ZM160.694 48.8L158.82 46.4574L158.809 46.4666L158.797 46.476L160.694 48.8ZM151.622 65.36L148.673 64.8095L148.01 68.36H151.622V65.36ZM200.726 65.36V68.36H203.726V65.36H200.726ZM200.726 64.208H203.726V64.0418L203.708 63.8767L200.726 64.208ZM196.406 52.976L193.989 54.7532L194.002 54.7705L194.015 54.7876L196.406 52.976ZM187.334 45.632L186.022 48.3297L186.065 48.3508L186.109 48.3705L187.334 45.632ZM206.654 68.96C206.654 69.2643 206.576 69.5234 206.237 69.8627L210.48 74.1053C211.868 72.7166 212.654 70.9597 212.654 68.96H206.654ZM206.365 69.7418C206.048 70.0235 205.749 70.136 205.334 70.136V76.136C207.224 76.136 208.94 75.4805 210.351 74.2262L206.365 69.7418ZM205.334 70.136H150.902V76.136H205.334V70.136ZM147.902 73.136C147.902 79.3062 149.139 84.9581 151.675 90.0296L157.042 87.3464C154.969 83.2019 153.902 78.4858 153.902 73.136H147.902ZM151.71 90.0968C154.357 95.0732 158.083 99.0667 162.853 102.035L166.023 96.9408C162.154 94.5333 159.16 91.3268 157.007 87.2792L151.71 90.0968ZM162.92 102.075C167.866 104.979 173.592 106.376 179.99 106.376V100.376C174.484 100.376 169.842 99.1813 165.957 96.9008L162.92 102.075ZM179.99 106.376C185.027 106.376 189.644 105.323 193.772 103.151L190.977 97.8412C187.809 99.5089 184.17 100.376 179.99 100.376V106.376ZM193.772 103.151C197.772 101.045 201.063 98.3157 203.568 94.9395L198.749 91.3645C196.838 93.9403 194.272 96.107 190.977 97.8412L193.772 103.151ZM203.058 95.4739C203.8 94.8672 204.155 94.856 204.182 94.856V88.856C202.289 88.856 200.629 89.7088 199.259 90.8301L203.058 95.4739ZM204.182 94.856C204.24 94.856 204.367 94.8434 204.653 95.1293L208.896 90.8867C207.646 89.6366 206.045 88.856 204.182 88.856V94.856ZM204.653 95.1293C204.939 95.4153 204.926 95.5427 204.926 95.6H210.926C210.926 93.7373 210.146 92.1367 208.896 90.8867L204.653 95.1293ZM204.926 95.6C204.926 95.6505 204.931 95.9371 204.365 96.5027L208.608 100.745C209.962 99.3909 210.926 97.6615 210.926 95.6H204.926ZM204.167 96.721C201.38 100.118 197.828 102.938 193.459 105.168L196.186 110.512C201.224 107.942 205.448 104.618 208.806 100.527L204.167 96.721ZM193.437 105.179C189.255 107.357 184.835 108.44 180.134 108.44V114.44C185.802 114.44 191.173 113.123 196.208 110.501L193.437 105.179ZM180.134 108.44C173.183 108.44 167.172 106.954 162.015 104.07L159.086 109.306C165.256 112.758 172.302 114.44 180.134 114.44V108.44ZM162.015 104.07C156.835 101.172 152.818 97.1557 149.921 91.9755L144.684 94.9045C148.123 101.052 152.938 105.868 159.086 109.306L162.015 104.07ZM149.931 91.9942C147.039 86.7356 145.55 80.6217 145.55 73.568H139.55C139.55 81.4903 141.23 88.6244 144.674 94.8858L149.931 91.9942ZM145.55 73.568C145.55 66.0894 147.008 59.721 149.815 54.3696L144.502 51.5823C141.165 57.943 139.55 65.3026 139.55 73.568H145.55ZM149.807 54.3855C152.748 48.8599 156.56 44.78 161.216 42.0209L158.157 36.8591C152.445 40.244 147.905 45.1881 144.51 51.5664L149.807 54.3855ZM161.251 41.9998C165.982 39.1084 170.964 37.688 176.246 37.688V31.688C169.817 31.688 163.758 33.4356 158.122 36.8802L161.251 41.9998ZM176.246 37.688C181.518 37.688 186.404 38.9127 190.952 41.3614L193.797 36.0786C188.36 33.1513 182.495 31.688 176.246 31.688V37.688ZM190.973 41.3726C195.557 43.7943 199.295 47.3419 202.198 52.0923L207.318 48.9636C203.885 43.3461 199.368 39.0217 193.776 36.0674L190.973 41.3726ZM202.198 52.0923C205.041 56.7443 206.565 62.3425 206.655 69.0005L212.654 68.9195C212.552 61.3695 210.811 54.6797 207.318 48.9636L202.198 52.0923ZM176.246 40.04C169.925 40.04 164.093 42.2389 158.82 46.4574L162.568 51.1426C166.895 47.6811 171.431 46.04 176.246 46.04V40.04ZM158.797 46.476C153.436 50.8521 150.119 57.0624 148.673 64.8095L154.571 65.9105C155.813 59.2576 158.544 54.4279 162.591 51.124L158.797 46.476ZM151.622 68.36H200.726V62.36H151.622V68.36ZM203.726 65.36V64.208H197.726V65.36H203.726ZM203.708 63.8767C203.174 59.071 201.554 54.8034 198.798 51.1644L194.015 54.7876C196.058 57.4846 197.319 60.705 197.745 64.5393L203.708 63.8767ZM198.823 51.1988C196.12 47.5227 192.688 44.7405 188.559 42.8935L186.109 48.3705C189.277 49.7875 191.892 51.9013 193.989 54.7532L198.823 51.1988ZM188.647 42.9343C184.698 41.0132 180.554 40.04 176.246 40.04V46.04C179.618 46.04 182.867 46.7947 186.022 48.3297L188.647 42.9343ZM279.734 39.584L281.332 37.0453L281.332 37.0453L279.734 39.584ZM291.83 53.264L289.138 54.588L289.151 54.6146L289.165 54.6411L291.83 53.264ZM291.83 92.576L289.147 91.2344L289.142 91.2432L289.138 91.252L291.83 92.576ZM279.734 106.4L278.102 103.883L278.091 103.89L278.081 103.897L279.734 106.4ZM247.334 107.408L245.783 109.976L245.814 109.995L245.846 110.013L247.334 107.408ZM236.102 96.464L238.631 94.8499L233.102 86.1882V96.464H236.102ZM234.806 109.136L232.685 107.015L232.622 107.077L232.564 107.143L234.806 109.136ZM228.614 109.136L226.372 111.129L226.43 111.195L226.493 111.257L228.614 109.136ZM228.614 4.88L230.735 7.00132L230.735 7.00132L228.614 4.88ZM234.806 4.88L232.564 6.87309L232.681 7.00499L232.813 7.12223L234.806 4.88ZM236.102 50.384H233.102L238.729 51.8318L236.102 50.384ZM247.046 39.008L245.479 36.4494L245.479 36.4494L247.046 39.008ZM275.126 99.344L273.462 96.8478L273.448 96.8571L273.434 96.8666L275.126 99.344ZM284.486 88.4L281.792 87.0804L281.786 87.092L281.78 87.1036L284.486 88.4ZM284.486 57.44L281.78 58.7364L281.797 58.7706L281.814 58.8043L284.486 57.44ZM275.126 46.64L273.476 49.1455L273.49 49.1546L273.504 49.1635L275.126 46.64ZM248.054 46.64L249.633 49.1908L249.655 49.1773L249.676 49.1635L248.054 46.64ZM238.694 88.544L235.978 89.8187L235.994 89.8524L236.011 89.8856L238.694 88.544ZM248.054 99.488L246.362 101.965L246.397 101.989L246.432 102.012L248.054 99.488ZM262.454 37.688C268.245 37.688 273.447 39.1708 278.136 42.1227L281.332 37.0453C275.653 33.4692 269.335 31.688 262.454 31.688V37.688ZM278.136 42.1227C282.819 45.0713 286.486 49.1964 289.138 54.588L294.522 51.94C291.414 45.6196 287.017 40.6247 281.332 37.0453L278.136 42.1227ZM289.165 54.6411C291.894 59.9245 293.294 65.9704 293.294 72.848H299.294C299.294 65.1336 297.717 58.1235 294.495 51.8869L289.165 54.6411ZM293.294 72.848C293.294 79.6212 291.898 85.7324 289.147 91.2344L294.513 93.9176C297.714 87.5156 299.294 80.4748 299.294 72.848H293.294ZM289.138 91.252C286.483 96.6503 282.806 100.834 278.102 103.883L281.366 108.917C287.03 105.246 291.417 100.214 294.522 93.9L289.138 91.252ZM278.081 103.897C273.503 106.92 268.37 108.44 262.598 108.44V114.44C269.497 114.44 275.789 112.6 281.387 108.903L278.081 103.897ZM262.598 108.44C257.643 108.44 253.068 107.23 248.822 104.803L245.846 110.013C251.008 112.962 256.609 114.44 262.598 114.44V108.44ZM248.885 104.84C244.67 102.293 241.261 98.9708 238.631 94.8499L233.573 98.0781C236.703 102.981 240.782 106.955 245.783 109.976L248.885 104.84ZM233.102 96.464V105.968H239.102V96.464H233.102ZM233.102 105.968C233.102 106.439 232.973 106.727 232.685 107.015L236.927 111.257C238.367 109.817 239.102 107.993 239.102 105.968H233.102ZM232.564 107.143C232.414 107.311 232.25 107.432 231.782 107.432V113.432C233.81 113.432 235.662 112.689 237.048 111.129L232.564 107.143ZM231.782 107.432C231.311 107.432 231.023 107.303 230.735 107.015L226.493 111.257C227.933 112.697 229.757 113.432 231.782 113.432V107.432ZM230.856 107.143C230.617 106.874 230.462 106.545 230.462 105.968H224.462C224.462 107.887 225.075 109.67 226.372 111.129L230.856 107.143ZM230.462 105.968V7.90399H224.462V105.968H230.462ZM230.462 7.90399C230.462 7.323 230.615 7.12184 230.735 7.00132L226.493 2.75867C225.077 4.17414 224.462 5.98898 224.462 7.90399H230.462ZM230.735 7.00132C231.023 6.71327 231.311 6.584 231.782 6.584V0.583997C229.757 0.583997 227.933 1.31873 226.493 2.75868L230.735 7.00132ZM231.782 6.584C232.25 6.584 232.414 6.70479 232.564 6.87309L237.048 2.88691C235.662 1.3272 233.81 0.583997 231.782 0.583997V6.584ZM232.813 7.12223C232.981 7.27182 233.102 7.43611 233.102 7.90399H239.102C239.102 5.87587 238.359 4.02417 236.799 2.63776L232.813 7.12223ZM233.102 7.90399V50.384H239.102V7.90399H233.102ZM238.729 51.8318C241.063 47.5965 244.34 44.1823 248.612 41.5665L245.479 36.4494C240.344 39.5937 236.325 43.7634 233.474 48.9362L238.729 51.8318ZM248.612 41.5666C252.84 38.9781 257.433 37.688 262.454 37.688V31.688C256.339 31.688 250.66 33.2779 245.479 36.4494L248.612 41.5666ZM261.734 106.376C267.299 106.376 272.359 104.867 276.818 101.821L273.434 96.8666C270.021 99.1975 266.152 100.376 261.734 100.376V106.376ZM276.79 101.84C281.295 98.8365 284.764 94.763 287.191 89.6964L281.78 87.1036C279.792 91.253 277.02 94.4755 273.462 96.8478L276.79 101.84ZM287.18 89.7196C289.701 84.5721 290.942 78.9315 290.942 72.848H284.942C284.942 78.0925 283.879 82.8199 281.792 87.0804L287.18 89.7196ZM290.942 72.848C290.942 66.6791 289.705 61.0648 287.158 56.0757L281.814 58.8043C283.874 62.8392 284.942 67.4969 284.942 72.848H290.942ZM287.191 56.1436C284.76 51.0686 281.279 47.0293 276.748 44.1165L273.504 49.1635C277.037 51.4347 279.796 54.5954 281.78 58.7364L287.191 56.1436ZM276.776 44.1345C272.32 41.2004 267.276 39.752 261.734 39.752V45.752C266.176 45.752 270.059 46.8956 273.476 49.1455L276.776 44.1345ZM261.734 39.752C256.108 39.752 250.978 41.1939 246.432 44.1165L249.676 49.1635C253.194 46.9021 257.184 45.752 261.734 45.752V39.752ZM246.475 44.0892C241.917 46.9106 238.424 50.9162 235.988 55.9996L241.399 58.5924C243.38 54.4597 246.127 51.3614 249.633 49.1908L246.475 44.0892ZM235.988 55.9996C233.563 61.0611 232.382 66.6967 232.382 72.848H238.382C238.382 67.4793 239.409 62.7469 241.399 58.5924L235.988 55.9996ZM232.382 72.848C232.382 79.0004 233.564 84.6744 235.978 89.8187L241.41 87.2693C239.408 83.0056 238.382 78.2156 238.382 72.848H232.382ZM236.011 89.8856C238.524 94.9124 241.971 98.9663 246.362 101.965L249.746 97.0106C246.265 94.6337 243.472 91.3916 241.377 87.2024L236.011 89.8856ZM246.432 102.012C250.978 104.934 256.108 106.376 261.734 106.376V100.376C257.184 100.376 253.194 99.2259 249.676 96.9645L246.432 102.012ZM377.303 92.72L379.942 94.1475L379.942 94.1475L377.303 92.72ZM364.199 106.544L365.716 109.132L365.733 109.122L365.749 109.113L364.199 106.544ZM327.047 106.544L325.497 109.113L325.513 109.122L325.53 109.132L327.047 106.544ZM313.943 92.72L311.304 94.1475L311.304 94.1475L313.943 92.72ZM313.943 53.552L311.304 52.1245L311.304 52.1245L313.943 53.552ZM327.047 39.728L325.497 37.1594L325.497 37.1594L327.047 39.728ZM364.199 39.728L365.749 37.1594L365.749 37.1594L364.199 39.728ZM359.735 46.784L358.124 49.315L358.158 49.3362L358.191 49.3565L359.735 46.784ZM331.511 46.784L333.08 49.341L333.101 49.3281L333.122 49.315L331.511 46.784ZM321.431 57.584L318.793 56.1551L318.781 56.1766L318.77 56.1982L321.431 57.584ZM321.431 88.544L318.77 89.9298L318.781 89.9514L318.793 89.9728L321.431 88.544ZM331.511 99.488L329.9 102.019L329.921 102.032L329.942 102.045L331.511 99.488ZM359.735 99.488L358.191 96.9155L358.179 96.9232L358.166 96.931L359.735 99.488ZM369.815 88.688L372.476 90.0738L372.476 90.0738L369.815 88.688ZM379.055 73.136C379.055 79.8792 377.576 85.9102 374.664 91.2925L379.942 94.1475C383.366 87.8178 385.055 80.7928 385.055 73.136H379.055ZM374.664 91.2925C371.745 96.6896 367.747 100.899 362.649 103.975L365.749 109.113C371.786 105.469 376.525 100.462 379.942 94.1475L374.664 91.2925ZM362.682 103.956C357.6 106.935 351.937 108.44 345.623 108.44V114.44C352.941 114.44 359.662 112.681 365.716 109.132L362.682 103.956ZM345.623 108.44C339.309 108.44 333.646 106.935 328.564 103.956L325.53 109.132C331.584 112.681 338.305 114.44 345.623 114.44V108.44ZM328.597 103.975C323.498 100.899 319.501 96.6896 316.582 91.2925L311.304 94.1475C314.721 100.462 319.459 105.469 325.497 109.113L328.597 103.975ZM316.582 91.2925C313.67 85.9102 312.191 79.8792 312.191 73.136H306.191C306.191 80.7928 307.88 87.8178 311.304 94.1475L316.582 91.2925ZM312.191 73.136C312.191 66.3928 313.67 60.3618 316.582 54.9795L311.304 52.1245C307.88 58.4542 306.191 65.4792 306.191 73.136H312.191ZM316.582 54.9795C319.501 49.5824 323.498 45.3733 328.597 42.2966L325.497 37.1594C319.459 40.8027 314.721 45.8096 311.304 52.1245L316.582 54.9795ZM328.597 42.2966C333.674 39.2327 339.326 37.688 345.623 37.688V31.688C338.288 31.688 331.556 33.5033 325.497 37.1594L328.597 42.2966ZM345.623 37.688C351.92 37.688 357.572 39.2327 362.649 42.2966L365.749 37.1594C359.69 33.5033 352.958 31.688 345.623 31.688V37.688ZM362.649 42.2966C367.747 45.3733 371.745 49.5824 374.664 54.9795L379.942 52.1245C376.525 45.8096 371.786 40.8027 365.749 37.1594L362.649 42.2966ZM374.664 54.9795C377.576 60.3618 379.055 66.3928 379.055 73.136H385.055C385.055 65.4792 383.366 58.4542 379.942 52.1245L374.664 54.9795ZM376.415 73.136C376.415 66.9468 375.122 61.279 372.476 56.1982L367.154 58.9698C369.308 63.105 370.415 67.8052 370.415 73.136H376.415ZM372.476 56.1982C369.828 51.1153 366.089 47.0976 361.278 44.2115L358.191 49.3565C362.021 51.6544 365.002 54.8367 367.154 58.9698L372.476 56.1982ZM361.346 44.253C356.623 41.2475 351.356 39.752 345.623 39.752V45.752C350.258 45.752 354.399 46.9445 358.124 49.315L361.346 44.253ZM345.623 39.752C339.89 39.752 334.623 41.2475 329.9 44.253L333.122 49.315C336.847 46.9445 340.988 45.752 345.623 45.752V39.752ZM329.942 44.227C325.243 47.1107 321.525 51.1114 318.793 56.1551L324.069 59.0128C326.329 54.8406 329.331 51.6413 333.08 49.341L329.942 44.227ZM318.77 56.1982C316.124 61.279 314.831 66.9468 314.831 73.136H320.831C320.831 67.8052 321.938 63.105 324.092 58.9698L318.77 56.1982ZM314.831 73.136C314.831 79.2381 316.128 84.8561 318.77 89.9298L324.092 87.1582C321.934 83.0159 320.831 78.3619 320.831 73.136H314.831ZM318.793 89.9728C321.52 95.0079 325.225 99.044 329.9 102.019L333.122 96.957C329.349 94.556 326.334 91.2961 324.069 87.1152L318.793 89.9728ZM329.942 102.045C334.66 104.94 339.912 106.376 345.623 106.376V100.376C340.966 100.376 336.81 99.2197 333.08 96.931L329.942 102.045ZM345.623 106.376C351.334 106.376 356.586 104.94 361.304 102.045L358.166 96.931C354.436 99.2197 350.28 100.376 345.623 100.376V106.376ZM361.278 102.06C366.089 99.1744 369.828 95.1567 372.476 90.0738L367.154 87.3022C365.002 91.4353 362.021 94.6176 358.191 96.9155L361.278 102.06ZM372.476 90.0738C375.122 84.993 376.415 79.3252 376.415 73.136H370.415C370.415 78.4668 369.308 83.167 367.154 87.3022L372.476 90.0738ZM452 40.736L450.401 43.2747L450.418 43.2854L450.435 43.2958L452 40.736ZM464.096 54.128L461.412 55.4696L461.426 55.4966L461.44 55.5234L464.096 54.128ZM464.096 92.72L461.43 91.3429L461.426 91.3516L461.421 91.3603L464.096 92.72ZM452 106.112L450.401 103.573L450.39 103.58L450.38 103.587L452 106.112ZM419.456 107.12L417.944 109.711L417.976 109.73L418.008 109.748L419.456 107.12ZM408.368 96.464L410.905 94.8641L405.368 86.08V96.464H408.368ZM407.072 137.504L405.078 135.262L404.947 135.379L404.829 135.511L407.072 137.504ZM400.88 137.504L398.758 139.625L398.758 139.625L400.88 137.504ZM400.88 37.424L398.758 35.3027L398.696 35.365L398.637 35.4309L400.88 37.424ZM407.072 37.424L404.829 39.4171L404.888 39.483L404.95 39.5453L407.072 37.424ZM408.368 50.384H405.368L410.993 51.8362L408.368 50.384ZM419.168 39.728L420.615 42.3555L420.615 42.3555L419.168 39.728ZM447.392 99.2L448.998 101.734L449.006 101.729L449.014 101.724L447.392 99.2ZM456.752 88.544L454.08 87.1797L454.068 87.2024L454.057 87.2253L456.752 88.544ZM456.752 58.304L454.057 59.6227L454.074 59.6574L454.092 59.6917L456.752 58.304ZM447.392 47.792L445.742 50.2975L445.777 50.3206L445.813 50.3428L447.392 47.792ZM420.32 47.648L418.741 45.0972L418.741 45.0972L420.32 47.648ZM410.96 58.16L413.643 59.5016L413.649 59.4902L413.654 59.4787L410.96 58.16ZM410.96 88.544L408.265 89.8627L408.265 89.8627L410.96 88.544ZM420.32 99.2L418.697 101.724L418.719 101.737L418.741 101.751L420.32 99.2ZM434.72 38.84C440.51 38.84 445.713 40.3228 450.401 43.2747L453.598 38.1973C447.918 34.6212 441.601 32.84 434.72 32.84V38.84ZM450.435 43.2958C455.11 46.1528 458.768 50.181 461.412 55.4696L466.779 52.7864C463.663 46.555 459.257 41.6552 453.564 38.1761L450.435 43.2958ZM461.44 55.5234C464.166 60.7112 465.56 66.6076 465.56 73.28H471.56C471.56 65.7444 469.977 58.8728 466.751 52.7326L461.44 55.5234ZM465.56 73.28C465.56 80.0546 464.163 86.054 461.43 91.3429L466.761 94.0971C469.98 87.866 471.56 80.9054 471.56 73.28H465.56ZM461.421 91.3603C458.777 96.5602 455.109 100.609 450.401 103.573L453.598 108.651C459.258 105.087 463.654 100.208 466.77 94.0797L461.421 91.3603ZM450.38 103.587C445.799 106.526 440.654 108.008 434.864 108.008V114.008C441.745 114.008 448.024 112.226 453.619 108.637L450.38 103.587ZM434.864 108.008C429.783 108.008 425.147 106.831 420.903 104.492L418.008 109.748C423.172 112.593 428.809 114.008 434.864 114.008V108.008ZM420.967 104.529C416.767 102.078 413.426 98.8627 410.905 94.8641L405.83 98.0639C408.877 102.897 412.929 106.786 417.944 109.711L420.967 104.529ZM405.368 96.464V134.48H411.368V96.464H405.368ZM405.368 134.48C405.368 134.948 405.247 135.112 405.078 135.262L409.065 139.746C410.624 138.36 411.368 136.508 411.368 134.48H405.368ZM404.829 135.511C404.68 135.679 404.515 135.8 404.048 135.8V141.8C406.076 141.8 407.927 141.057 409.314 139.497L404.829 135.511ZM404.048 135.8C403.576 135.8 403.289 135.671 403.001 135.383L398.758 139.625C400.198 141.065 402.023 141.8 404.048 141.8V135.8ZM403.001 135.383C402.88 135.262 402.728 135.061 402.728 134.48H396.728C396.728 136.395 397.343 138.21 398.758 139.625L403.001 135.383ZM402.728 134.48V40.592H396.728V134.48H402.728ZM402.728 40.592C402.728 40.0153 402.883 39.6863 403.122 39.4171L398.637 35.4309C397.341 36.8897 396.728 38.6727 396.728 40.592H402.728ZM403.001 39.5453C403.289 39.2573 403.576 39.128 404.048 39.128V33.128C402.023 33.128 400.198 33.8627 398.758 35.3027L403.001 39.5453ZM404.048 39.128C404.515 39.128 404.68 39.2488 404.829 39.4171L409.314 35.4309C407.927 33.8712 406.076 33.128 404.048 33.128V39.128ZM404.95 39.5453C405.238 39.8334 405.368 40.1206 405.368 40.592H411.368C411.368 38.5674 410.633 36.7426 409.193 35.3027L404.95 39.5453ZM405.368 40.592V50.384H411.368V40.592H405.368ZM410.993 51.8362C413.203 47.8403 416.385 44.6865 420.615 42.3555L417.72 37.1005C412.542 39.9535 408.524 43.9037 405.742 48.9318L410.993 51.8362ZM420.615 42.3555C424.852 40.0213 429.533 38.84 434.72 38.84V32.84C428.578 32.84 422.892 34.2507 417.72 37.1005L420.615 42.3555ZM434 105.944C439.518 105.944 444.547 104.556 448.998 101.734L445.785 96.6665C442.364 98.8359 438.465 99.944 434 99.944V105.944ZM449.014 101.724C453.529 98.8208 457.01 94.842 459.446 89.8627L454.057 87.2253C452.078 91.27 449.318 94.3952 445.769 96.6765L449.014 101.724ZM459.423 89.9083C461.967 84.9262 463.208 79.3617 463.208 73.28H457.208C457.208 78.5263 456.144 83.1378 454.08 87.1797L459.423 89.9083ZM463.208 73.28C463.208 67.2865 461.964 61.8091 459.411 56.9163L454.092 59.6917C456.147 63.6308 457.208 68.1375 457.208 73.28H463.208ZM459.446 56.9853C457.005 51.9972 453.512 48.0526 448.971 45.2412L445.813 50.3428C449.335 52.5234 452.082 55.5867 454.057 59.6227L459.446 56.9853ZM449.042 45.2865C444.586 42.3524 439.542 40.904 434 40.904V46.904C438.442 46.904 442.325 48.0476 445.742 50.2975L449.042 45.2865ZM434 40.904C428.396 40.904 423.282 42.286 418.741 45.0972L421.899 50.1988C425.422 48.018 429.427 46.904 434 46.904V40.904ZM418.741 45.0972C414.199 47.9086 410.706 51.8532 408.265 56.8413L413.654 59.4787C415.629 55.4428 418.376 52.3794 421.899 50.1988L418.741 45.0972ZM408.276 56.8184C405.831 61.7084 404.648 67.219 404.648 73.28H410.648C410.648 68.0129 411.672 63.4436 413.643 59.5016L408.276 56.8184ZM404.648 73.28C404.648 79.3424 405.832 84.8904 408.265 89.8627L413.654 87.2253C411.671 83.1736 410.648 78.5456 410.648 73.28H404.648ZM408.265 89.8627C410.702 94.842 414.182 98.8208 418.697 101.724L421.942 96.6765C418.393 94.3952 415.634 91.27 413.654 87.2253L408.265 89.8627ZM418.741 101.751C423.282 104.562 428.396 105.944 434 105.944V99.944C429.427 99.944 425.422 98.83 421.899 96.6492L418.741 101.751ZM548.561 68.96H551.561V68.9397L551.56 68.9195L548.561 68.96ZM547.265 71.984L549.258 74.2262L549.324 74.1677L549.386 74.1053L547.265 71.984ZM489.809 73.136V70.136H486.809V73.136H489.809ZM493.265 88.688L490.581 90.0296L490.598 90.0635L490.616 90.0968L493.265 88.688ZM503.345 99.488L501.76 102.035L501.793 102.056L501.826 102.075L503.345 99.488ZM531.281 100.496L532.678 103.151L532.678 103.151L531.281 100.496ZM540.065 93.152L538.165 90.8301L537.877 91.0657L537.655 91.3645L540.065 93.152ZM545.681 93.008L547.802 90.8867L547.802 90.8867L545.681 93.008ZM545.393 98.624L543.271 96.5027L543.167 96.607L543.073 96.721L545.393 98.624ZM533.729 107.84L532.365 105.168L532.354 105.173L532.343 105.179L533.729 107.84ZM499.457 106.688L497.992 109.306L497.992 109.306L499.457 106.688ZM486.209 93.44L483.58 94.8858L483.585 94.8951L483.59 94.9045L486.209 93.44ZM486.065 52.976L483.416 51.5664L483.412 51.5744L483.408 51.5823L486.065 52.976ZM498.593 39.44L500.122 42.0209L500.14 42.0105L500.157 41.9998L498.593 39.44ZM531.281 38.72L529.858 41.3614L529.869 41.367L529.879 41.3726L531.281 38.72ZM543.665 50.528L541.105 52.0923L541.105 52.0923L543.665 50.528ZM499.601 48.8L497.726 46.4574L497.715 46.4666L497.703 46.476L499.601 48.8ZM490.529 65.36L487.58 64.8095L486.917 68.36H490.529V65.36ZM539.633 65.36V68.36H542.633V65.36H539.633ZM539.633 64.208H542.633V64.0418L542.614 63.8767L539.633 64.208ZM535.313 52.976L532.896 54.7532L532.908 54.7705L532.921 54.7876L535.313 52.976ZM526.241 45.632L524.928 48.3297L524.971 48.3508L525.015 48.3705L526.241 45.632ZM545.561 68.96C545.561 69.2643 545.483 69.5234 545.143 69.8627L549.386 74.1053C550.775 72.7166 551.561 70.9597 551.561 68.96H545.561ZM545.271 69.7418C544.955 70.0235 544.655 70.136 544.241 70.136V76.136C546.13 76.136 547.847 75.4805 549.258 74.2262L545.271 69.7418ZM544.241 70.136H489.809V76.136H544.241V70.136ZM486.809 73.136C486.809 79.3062 488.045 84.9581 490.581 90.0296L495.948 87.3464C493.876 83.2019 492.809 78.4858 492.809 73.136H486.809ZM490.616 90.0968C493.263 95.0732 496.989 99.0667 501.76 102.035L504.929 96.9408C501.06 94.5333 498.066 91.3268 495.913 87.2792L490.616 90.0968ZM501.826 102.075C506.773 104.979 512.498 106.376 518.897 106.376V100.376C513.391 100.376 508.749 99.1813 504.863 96.9008L501.826 102.075ZM518.897 106.376C523.933 106.376 528.55 105.323 532.678 103.151L529.883 97.8412C526.715 99.5089 523.076 100.376 518.897 100.376V106.376ZM532.678 103.151C536.679 101.045 539.969 98.3157 542.474 94.9395L537.655 91.3645C535.744 93.9403 533.178 96.107 529.883 97.8412L532.678 103.151ZM541.964 95.4739C542.706 94.8672 543.061 94.856 543.089 94.856V88.856C541.196 88.856 539.535 89.7088 538.165 90.8301L541.964 95.4739ZM543.089 94.856C543.146 94.856 543.273 94.8434 543.559 95.1293L547.802 90.8867C546.552 89.6366 544.951 88.856 543.089 88.856V94.856ZM543.559 95.1293C543.845 95.4153 543.833 95.5427 543.833 95.6H549.833C549.833 93.7373 549.052 92.1367 547.802 90.8867L543.559 95.1293ZM543.833 95.6C543.833 95.6505 543.837 95.9371 543.271 96.5027L547.514 100.745C548.868 99.3909 549.833 97.6615 549.833 95.6H543.833ZM543.073 96.721C540.286 100.118 536.735 102.938 532.365 105.168L535.092 110.512C540.131 107.942 544.355 104.618 547.712 100.527L543.073 96.721ZM532.343 105.179C528.162 107.357 523.741 108.44 519.041 108.44V114.44C524.708 114.44 530.079 113.123 535.114 110.501L532.343 105.179ZM519.041 108.44C512.089 108.44 506.078 106.954 500.921 104.07L497.992 109.306C504.163 112.758 511.208 114.44 519.041 114.44V108.44ZM500.921 104.07C495.741 101.172 491.724 97.1557 488.827 91.9755L483.59 94.9045C487.029 101.052 491.844 105.868 497.992 109.306L500.921 104.07ZM488.837 91.9942C485.945 86.7356 484.457 80.6217 484.457 73.568H478.457C478.457 81.4903 480.136 88.6244 483.58 94.8858L488.837 91.9942ZM484.457 73.568C484.457 66.0894 485.914 59.721 488.721 54.3696L483.408 51.5823C480.071 57.943 478.457 65.3026 478.457 73.568H484.457ZM488.713 54.3855C491.654 48.8599 495.466 44.78 500.122 42.0209L497.063 36.8591C491.351 40.244 486.811 45.1881 483.416 51.5664L488.713 54.3855ZM500.157 41.9998C504.888 39.1084 509.87 37.688 515.153 37.688V31.688C508.723 31.688 502.665 33.4356 497.028 36.8802L500.157 41.9998ZM515.153 37.688C520.424 37.688 525.311 38.9127 529.858 41.3614L532.703 36.0786C527.267 33.1513 521.401 31.688 515.153 31.688V37.688ZM529.879 41.3726C534.463 43.7943 538.202 47.3419 541.105 52.0923L546.224 48.9636C542.791 43.3461 538.274 39.0217 532.682 36.0674L529.879 41.3726ZM541.105 52.0923C543.948 56.7443 545.471 62.3425 545.561 69.0005L551.56 68.9195C551.458 61.3695 549.718 54.6797 546.224 48.9636L541.105 52.0923ZM515.153 40.04C508.832 40.04 503 42.2389 497.726 46.4574L501.475 51.1426C505.802 47.6811 510.337 46.04 515.153 46.04V40.04ZM497.703 46.476C492.343 50.8521 489.026 57.0624 487.58 64.8095L493.478 65.9105C494.72 59.2576 497.45 54.4279 501.498 51.124L497.703 46.476ZM490.529 68.36H539.633V62.36H490.529V68.36ZM542.633 65.36V64.208H536.633V65.36H542.633ZM542.614 63.8767C542.08 59.071 540.461 54.8034 537.704 51.1644L532.921 54.7876C534.964 57.4846 536.225 60.705 536.651 64.5393L542.614 63.8767ZM537.73 51.1988C535.027 47.5227 531.594 44.7405 527.466 42.8935L525.015 48.3705C528.183 49.7875 530.799 51.9013 532.896 54.7532L537.73 51.1988ZM527.553 42.9343C523.604 41.0132 519.461 40.04 515.153 40.04V46.04C518.525 46.04 521.773 46.7947 524.928 48.3297L527.553 42.9343ZM600.784 34.688V31.688H600.76L600.737 31.6884L600.784 34.688ZM605.968 35.84L607.31 33.1567L607.31 33.1567L605.968 35.84ZM607.12 42.608L609.242 44.7293L609.304 44.667L609.362 44.6011L607.12 42.608ZM601.504 43.04L600.495 45.8652L600.525 45.876L600.556 45.886L601.504 43.04ZM586.96 46.496L588.802 48.8641L588.811 48.8572L586.96 46.496ZM578.32 57.008L575.673 55.5962L575.661 55.6193L575.649 55.6427L578.32 57.008ZM573.712 108.848L571.591 106.727L571.591 106.727L573.712 108.848ZM567.52 108.848L565.278 110.841L565.395 110.973L565.527 111.09L567.52 108.848ZM567.52 38.144L569.642 40.2653L569.642 40.2653L567.52 38.144ZM573.712 38.144L571.47 40.1371L571.587 40.269L571.719 40.3862L573.712 38.144ZM575.008 53.84H572.008L577.79 54.9626L575.008 53.84ZM584.944 40.304L586.824 42.6416L586.83 42.6369L584.944 40.304ZM600.784 37.688C602.294 37.688 603.554 37.9871 604.627 38.5233L607.31 33.1567C605.31 32.1569 603.114 31.688 600.784 31.688V37.688ZM604.627 38.5233C605.039 38.7293 605.168 38.8953 605.2 38.9441C605.22 38.9741 605.272 39.0529 605.272 39.296H611.272C611.272 38.003 610.94 36.7379 610.192 35.6159C609.457 34.5127 608.434 33.7187 607.31 33.1567L604.627 38.5233ZM605.272 39.296C605.272 40.0322 605.08 40.388 604.878 40.6149L609.362 44.6011C610.697 43.1 611.272 41.2478 611.272 39.296H605.272ZM604.999 40.4867C604.776 40.71 604.62 40.76 604.384 40.76V46.76C606.261 46.76 607.929 46.042 609.242 44.7293L604.999 40.4867ZM604.384 40.76C604.491 40.76 604.519 40.7711 604.427 40.7558C604.348 40.7426 604.22 40.7165 604.032 40.6696C603.654 40.5752 603.134 40.421 602.453 40.1939L600.556 45.886C601.314 46.139 601.994 46.3448 602.577 46.4904C603.099 46.621 603.757 46.76 604.384 46.76V40.76ZM602.513 40.2148C600.891 39.6355 599.254 39.32 597.616 39.32V45.32C598.475 45.32 599.429 45.4845 600.495 45.8652L602.513 40.2148ZM597.616 39.32C593.23 39.32 589.045 41.0506 585.11 44.1348L588.811 48.8572C591.98 46.3734 594.899 45.32 597.616 45.32V39.32ZM585.118 44.1279C581.292 47.1036 578.152 50.9486 575.673 55.5962L580.967 58.4198C583.096 54.4274 585.716 51.2643 588.802 48.8641L585.118 44.1279ZM575.649 55.6427C573.247 60.3429 572.008 65.1758 572.008 70.112H578.008C578.008 66.2162 578.978 62.3131 580.991 58.3733L575.649 55.6427ZM572.008 70.112V105.68H578.008V70.112H572.008ZM572.008 105.68C572.008 106.151 571.879 106.439 571.591 106.727L575.834 110.969C577.273 109.529 578.008 107.705 578.008 105.68H572.008ZM571.591 106.727C571.47 106.847 571.269 107 570.688 107V113C572.603 113 574.418 112.385 575.834 110.969L571.591 106.727ZM570.688 107C570.111 107 569.782 106.845 569.513 106.606L565.527 111.09C566.986 112.387 568.769 113 570.688 113V107ZM569.762 106.855C569.523 106.586 569.368 106.257 569.368 105.68H563.368C563.368 107.599 563.981 109.382 565.278 110.841L569.762 106.855ZM569.368 105.68V41.168H563.368V105.68H569.368ZM569.368 41.168C569.368 40.587 569.521 40.3858 569.642 40.2653L565.399 36.0227C563.983 37.4382 563.368 39.253 563.368 41.168H569.368ZM569.642 40.2653C569.93 39.9773 570.217 39.848 570.688 39.848V33.848C568.664 33.848 566.839 34.5827 565.399 36.0227L569.642 40.2653ZM570.688 39.848C571.156 39.848 571.32 39.9688 571.47 40.1371L575.954 36.1509C574.568 34.5912 572.716 33.848 570.688 33.848V39.848ZM571.719 40.3862C571.887 40.5358 572.008 40.7001 572.008 41.168H578.008C578.008 39.1399 577.265 37.2882 575.705 35.9018L571.719 40.3862ZM572.008 41.168V53.84H578.008V41.168H572.008ZM577.79 54.9626C579.815 49.9456 582.825 45.8588 586.824 42.6416L583.064 37.9664C578.232 41.8532 574.618 46.7904 572.226 52.7174L577.79 54.9626ZM586.83 42.6369C590.798 39.4291 595.423 37.7735 600.832 37.6876L600.737 31.6884C594.049 31.7945 588.115 33.8829 583.058 37.9711L586.83 42.6369ZM617.598 98.336L615.043 99.9083L615.136 100.059L615.246 100.197L617.598 98.336ZM618.318 92.288L619.741 94.9294L620.128 94.7207L620.44 94.4093L618.318 92.288ZM623.79 92.864L626.183 91.0542L626.058 90.8891L625.912 90.7427L623.79 92.864ZM658.35 100.928L659.947 103.468L659.956 103.462L659.966 103.456L658.35 100.928ZM658.782 82.352L660.393 79.821L660.393 79.821L658.782 82.352ZM645.534 77.168L646.274 74.2605L646.27 74.2596L645.534 77.168ZM626.814 69.392L625.056 71.8227L625.073 71.8351L625.091 71.8472L626.814 69.392ZM623.358 44.624L625.794 46.3749L625.807 46.3572L625.82 46.3394L623.358 44.624ZM632.286 37.28L631.055 34.5442L631.042 34.5501L631.029 34.5561L632.286 37.28ZM657.63 37.136L656.527 39.9259L656.566 39.9412L656.605 39.9554L657.63 37.136ZM668.43 44.624L666.157 46.5816L666.352 46.8083L666.589 46.9921L668.43 44.624ZM668.286 50.528L670.239 52.8058L670.266 52.7822L670.293 52.7579L668.286 50.528ZM663.102 50.24L660.86 52.2331L660.919 52.299L660.981 52.3613L663.102 50.24ZM633.006 45.488L631.377 42.9693L631.359 42.9804L631.342 42.9918L633.006 45.488ZM628.254 54.992H625.254V55.0669L625.258 55.1418L628.254 54.992ZM633.438 63.776L631.862 66.3284L631.878 66.3385L631.895 66.3485L633.438 63.776ZM648.126 69.248L647.389 72.1559L647.399 72.1584L648.126 69.248ZM668.43 79.904L666.001 81.6635L666.02 81.6906L666.04 81.7172L668.43 79.904ZM664.11 105.968L665.88 108.39L665.896 108.379L665.91 108.368L664.11 105.968ZM620.153 96.7637C619.846 96.2636 619.659 95.8725 619.554 95.5828C619.447 95.2898 619.446 95.163 619.446 95.168H613.446C613.446 96.8511 614.164 98.4788 615.043 99.9083L620.153 96.7637ZM619.446 95.168C619.446 95.1078 619.454 95.0902 619.45 95.1019C619.447 95.1154 619.438 95.1337 619.43 95.147C619.41 95.1778 619.456 95.0829 619.741 94.9294L616.896 89.6466C614.837 90.7554 613.446 92.6452 613.446 95.168H619.446ZM620.44 94.4093C620.435 94.4138 620.424 94.4234 620.409 94.4335C620.393 94.4436 620.382 94.4483 620.38 94.449C620.375 94.4508 620.442 94.424 620.622 94.424V88.424C619.02 88.424 617.435 88.9285 616.197 90.1667L620.44 94.4093ZM620.622 94.424C620.838 94.424 621.164 94.4798 621.669 94.9853L625.912 90.7427C624.497 89.3282 622.711 88.424 620.622 88.424V94.424ZM621.398 94.6738C627.63 102.913 636.053 107.096 646.398 107.096V101.096C637.928 101.096 631.279 97.7907 626.183 91.0542L621.398 94.6738ZM646.398 107.096C651.479 107.096 656.036 105.926 659.947 103.468L656.754 98.3881C653.945 100.154 650.534 101.096 646.398 101.096V107.096ZM659.966 103.456C664.291 100.693 666.534 96.5676 666.534 91.424H660.534C660.534 94.5364 659.322 96.7475 656.735 98.3999L659.966 103.456ZM666.534 91.424C666.534 86.4569 664.5 82.4347 660.393 79.821L657.172 84.883C659.401 86.3013 660.534 88.3271 660.534 91.424H666.534ZM660.393 79.821C656.85 77.5665 652.095 75.7404 646.274 74.2605L644.795 80.0755C650.302 81.4756 654.379 83.1055 657.172 84.883L660.393 79.821ZM646.27 74.2596C638.499 72.2935 632.642 69.8184 628.538 66.9368L625.091 71.8472C630.01 75.3016 636.634 78.0105 644.799 80.0764L646.27 74.2596ZM628.573 66.9613C624.943 64.3357 623.046 60.5476 623.046 55.136H617.046C617.046 62.2044 619.662 67.9203 625.056 71.8227L628.573 66.9613ZM623.046 55.136C623.046 51.8012 623.969 48.9152 625.794 46.3749L620.922 42.8731C618.332 46.4768 617.046 50.5988 617.046 55.136H623.046ZM625.82 46.3394C627.702 43.6383 630.249 41.5243 633.544 40.0039L631.029 34.5561C626.836 36.4917 623.431 39.2737 620.897 42.9086L625.82 46.3394ZM633.518 40.0158C636.92 38.4847 640.812 37.688 645.246 37.688V31.688C640.081 31.688 635.333 32.6193 631.055 34.5442L633.518 40.0158ZM645.246 37.688C648.969 37.688 652.724 38.4222 656.527 39.9259L658.733 34.3461C654.281 32.5858 649.78 31.688 645.246 31.688V37.688ZM656.605 39.9554C660.339 41.3131 663.511 43.509 666.157 46.5816L670.704 42.6664C667.398 38.827 663.37 36.0309 658.656 34.3166L656.605 39.9554ZM666.589 46.9921C666.626 47.0208 666.642 47.0399 666.648 47.0476C666.654 47.0549 666.66 47.0634 666.667 47.0791C666.679 47.107 666.726 47.2268 666.726 47.504H672.726C672.726 45.4775 671.976 43.581 670.272 42.2559L666.589 46.9921ZM666.726 47.504C666.726 47.6974 666.693 47.9264 666.28 48.2981L670.293 52.7579C671.8 51.4016 672.726 49.6146 672.726 47.504H666.726ZM666.334 48.2502C666.307 48.2738 666.179 48.392 665.694 48.392V54.392C667.322 54.392 668.922 53.9342 670.239 52.8058L666.334 48.2502ZM665.694 48.392C665.637 48.392 665.51 48.4046 665.224 48.1187L660.981 52.3613C662.231 53.6114 663.832 54.392 665.694 54.392V48.392ZM665.345 48.2469C662.748 45.3252 659.647 43.0933 656.066 41.5743L653.723 47.0977C656.478 48.2667 658.849 49.9708 660.86 52.2331L665.345 48.2469ZM656.066 41.5743C652.506 40.0637 648.696 39.32 644.67 39.32V45.32C647.94 45.32 650.947 45.9203 653.723 47.0977L656.066 41.5743ZM644.67 39.32C639.675 39.32 635.2 40.4953 631.377 42.9693L634.636 48.0067C637.341 46.2567 640.642 45.32 644.67 45.32V39.32ZM631.342 42.9918C627.238 45.7283 625.254 49.8941 625.254 54.992H631.254C631.254 51.6419 632.439 49.4717 634.671 47.9841L631.342 42.9918ZM625.258 55.1418C625.499 59.9649 627.756 63.7924 631.862 66.3284L635.015 61.2236C632.593 59.7276 631.394 57.6991 631.251 54.8422L625.258 55.1418ZM631.895 66.3485C635.62 68.5835 640.84 70.4944 647.389 72.1559L648.864 66.3401C642.548 64.7376 637.977 63.0005 634.982 61.2035L631.895 66.3485ZM647.399 72.1584C652.274 73.3773 656.202 74.7123 659.233 76.1385L661.788 70.7095C658.29 69.0637 653.962 67.6147 648.854 66.3376L647.399 72.1584ZM659.233 76.1385C662.062 77.4697 664.297 79.3106 666.001 81.6635L670.86 78.1445C668.532 74.9294 665.487 72.4503 661.788 70.7095L659.233 76.1385ZM666.04 81.7172C667.647 83.8349 668.598 86.8305 668.598 90.992H674.598C674.598 85.9375 673.438 81.5411 670.821 78.0908L666.04 81.7172ZM668.598 90.992C668.598 96.2877 666.547 100.391 662.31 103.568L665.91 108.368C671.658 104.057 674.598 98.1763 674.598 90.992H668.598ZM662.34 103.546C657.957 106.749 652.418 108.44 645.534 108.44V114.44C653.435 114.44 660.28 112.483 665.88 108.39L662.34 103.546ZM645.534 108.44C634.685 108.44 626.261 104.45 619.951 96.4746L615.246 100.197C622.76 109.694 632.96 114.44 645.534 114.44V108.44Z" fill="#3DA9FC"/>
</svg>
